G75*
%MOIN*%
%OFA0B0*%
%FSLAX25Y25*%
%IPPOS*%
%LPD*%
%AMOC8*
5,1,8,0,0,1.08239X$1,22.5*
%
%ADD10R,0.01000X0.03937*%
%ADD11R,0.03937X0.01000*%
%ADD12R,0.21000X0.07600*%
%ADD13R,0.04331X0.03937*%
%ADD14R,0.01200X0.03900*%
%ADD15R,0.03937X0.04331*%
%ADD16R,0.02362X0.08661*%
%ADD17R,0.03937X0.05512*%
%ADD18R,0.02756X0.03937*%
%ADD19R,0.05512X0.10236*%
%ADD20R,0.07900X0.05900*%
%ADD21R,0.07900X0.15000*%
%ADD22R,0.05900X0.07900*%
%ADD23R,0.15000X0.07900*%
%ADD24R,0.01614X0.04016*%
%ADD25R,0.01378X0.03543*%
%ADD26R,0.05906X0.05118*%
%ADD27R,0.05512X0.11811*%
%ADD28R,0.05512X0.05512*%
%ADD29R,0.03543X0.01378*%
D10*
G36*
X0127530Y0254526D02*
X0128237Y0255233D01*
X0131020Y0252450D01*
X0130313Y0251743D01*
X0127530Y0254526D01*
G37*
G36*
X0128922Y0255918D02*
X0129629Y0256625D01*
X0132412Y0253842D01*
X0131705Y0253135D01*
X0128922Y0255918D01*
G37*
G36*
X0130314Y0257310D02*
X0131021Y0258017D01*
X0133804Y0255234D01*
X0133097Y0254527D01*
X0130314Y0257310D01*
G37*
G36*
X0131706Y0258702D02*
X0132413Y0259409D01*
X0135196Y0256626D01*
X0134489Y0255919D01*
X0131706Y0258702D01*
G37*
G36*
X0133098Y0260094D02*
X0133805Y0260801D01*
X0136588Y0258018D01*
X0135881Y0257311D01*
X0133098Y0260094D01*
G37*
G36*
X0134490Y0261486D02*
X0135197Y0262193D01*
X0137980Y0259410D01*
X0137273Y0258703D01*
X0134490Y0261486D01*
G37*
G36*
X0135882Y0262877D02*
X0136589Y0263584D01*
X0139372Y0260801D01*
X0138665Y0260094D01*
X0135882Y0262877D01*
G37*
G36*
X0137274Y0264269D02*
X0137981Y0264976D01*
X0140764Y0262193D01*
X0140057Y0261486D01*
X0137274Y0264269D01*
G37*
G36*
X0138666Y0265661D02*
X0139373Y0266368D01*
X0142156Y0263585D01*
X0141449Y0262878D01*
X0138666Y0265661D01*
G37*
G36*
X0140058Y0267053D02*
X0140765Y0267760D01*
X0143548Y0264977D01*
X0142841Y0264270D01*
X0140058Y0267053D01*
G37*
G36*
X0141449Y0268445D02*
X0142156Y0269152D01*
X0144939Y0266369D01*
X0144232Y0265662D01*
X0141449Y0268445D01*
G37*
G36*
X0142841Y0269837D02*
X0143548Y0270544D01*
X0146331Y0267761D01*
X0145624Y0267054D01*
X0142841Y0269837D01*
G37*
G36*
X0119178Y0293500D02*
X0119885Y0294207D01*
X0122668Y0291424D01*
X0121961Y0290717D01*
X0119178Y0293500D01*
G37*
G36*
X0117786Y0292108D02*
X0118493Y0292815D01*
X0121276Y0290032D01*
X0120569Y0289325D01*
X0117786Y0292108D01*
G37*
G36*
X0116395Y0290716D02*
X0117102Y0291423D01*
X0119885Y0288640D01*
X0119178Y0287933D01*
X0116395Y0290716D01*
G37*
G36*
X0115003Y0289324D02*
X0115710Y0290031D01*
X0118493Y0287248D01*
X0117786Y0286541D01*
X0115003Y0289324D01*
G37*
G36*
X0113611Y0287932D02*
X0114318Y0288639D01*
X0117101Y0285856D01*
X0116394Y0285149D01*
X0113611Y0287932D01*
G37*
G36*
X0112219Y0286540D02*
X0112926Y0287247D01*
X0115709Y0284464D01*
X0115002Y0283757D01*
X0112219Y0286540D01*
G37*
G36*
X0110827Y0285149D02*
X0111534Y0285856D01*
X0114317Y0283073D01*
X0113610Y0282366D01*
X0110827Y0285149D01*
G37*
G36*
X0109435Y0283757D02*
X0110142Y0284464D01*
X0112925Y0281681D01*
X0112218Y0280974D01*
X0109435Y0283757D01*
G37*
G36*
X0108043Y0282365D02*
X0108750Y0283072D01*
X0111533Y0280289D01*
X0110826Y0279582D01*
X0108043Y0282365D01*
G37*
G36*
X0106651Y0280973D02*
X0107358Y0281680D01*
X0110141Y0278897D01*
X0109434Y0278190D01*
X0106651Y0280973D01*
G37*
G36*
X0105259Y0279581D02*
X0105966Y0280288D01*
X0108749Y0277505D01*
X0108042Y0276798D01*
X0105259Y0279581D01*
G37*
G36*
X0103867Y0278189D02*
X0104574Y0278896D01*
X0107357Y0276113D01*
X0106650Y0275406D01*
X0103867Y0278189D01*
G37*
G36*
X0302292Y0278189D02*
X0302999Y0278896D01*
X0305782Y0276113D01*
X0305075Y0275406D01*
X0302292Y0278189D01*
G37*
G36*
X0303684Y0279581D02*
X0304391Y0280288D01*
X0307174Y0277505D01*
X0306467Y0276798D01*
X0303684Y0279581D01*
G37*
G36*
X0305076Y0280973D02*
X0305783Y0281680D01*
X0308566Y0278897D01*
X0307859Y0278190D01*
X0305076Y0280973D01*
G37*
G36*
X0306468Y0282365D02*
X0307175Y0283072D01*
X0309958Y0280289D01*
X0309251Y0279582D01*
X0306468Y0282365D01*
G37*
G36*
X0307860Y0283757D02*
X0308567Y0284464D01*
X0311350Y0281681D01*
X0310643Y0280974D01*
X0307860Y0283757D01*
G37*
G36*
X0309252Y0285149D02*
X0309959Y0285856D01*
X0312742Y0283073D01*
X0312035Y0282366D01*
X0309252Y0285149D01*
G37*
G36*
X0310644Y0286540D02*
X0311351Y0287247D01*
X0314134Y0284464D01*
X0313427Y0283757D01*
X0310644Y0286540D01*
G37*
G36*
X0312036Y0287932D02*
X0312743Y0288639D01*
X0315526Y0285856D01*
X0314819Y0285149D01*
X0312036Y0287932D01*
G37*
G36*
X0313428Y0289324D02*
X0314135Y0290031D01*
X0316918Y0287248D01*
X0316211Y0286541D01*
X0313428Y0289324D01*
G37*
G36*
X0314820Y0290716D02*
X0315527Y0291423D01*
X0318310Y0288640D01*
X0317603Y0287933D01*
X0314820Y0290716D01*
G37*
G36*
X0316212Y0292108D02*
X0316919Y0292815D01*
X0319702Y0290032D01*
X0318995Y0289325D01*
X0316212Y0292108D01*
G37*
G36*
X0317604Y0293500D02*
X0318311Y0294207D01*
X0321094Y0291424D01*
X0320387Y0290717D01*
X0317604Y0293500D01*
G37*
G36*
X0339875Y0268445D02*
X0340582Y0269152D01*
X0343365Y0266369D01*
X0342658Y0265662D01*
X0339875Y0268445D01*
G37*
G36*
X0338483Y0267053D02*
X0339190Y0267760D01*
X0341973Y0264977D01*
X0341266Y0264270D01*
X0338483Y0267053D01*
G37*
G36*
X0337091Y0265661D02*
X0337798Y0266368D01*
X0340581Y0263585D01*
X0339874Y0262878D01*
X0337091Y0265661D01*
G37*
G36*
X0335699Y0264269D02*
X0336406Y0264976D01*
X0339189Y0262193D01*
X0338482Y0261486D01*
X0335699Y0264269D01*
G37*
G36*
X0334307Y0262877D02*
X0335014Y0263584D01*
X0337797Y0260801D01*
X0337090Y0260094D01*
X0334307Y0262877D01*
G37*
G36*
X0332915Y0261486D02*
X0333622Y0262193D01*
X0336405Y0259410D01*
X0335698Y0258703D01*
X0332915Y0261486D01*
G37*
G36*
X0331523Y0260094D02*
X0332230Y0260801D01*
X0335013Y0258018D01*
X0334306Y0257311D01*
X0331523Y0260094D01*
G37*
G36*
X0330131Y0258702D02*
X0330838Y0259409D01*
X0333621Y0256626D01*
X0332914Y0255919D01*
X0330131Y0258702D01*
G37*
G36*
X0328739Y0257310D02*
X0329446Y0258017D01*
X0332229Y0255234D01*
X0331522Y0254527D01*
X0328739Y0257310D01*
G37*
G36*
X0327347Y0255918D02*
X0328054Y0256625D01*
X0330837Y0253842D01*
X0330130Y0253135D01*
X0327347Y0255918D01*
G37*
G36*
X0325955Y0254526D02*
X0326662Y0255233D01*
X0329445Y0252450D01*
X0328738Y0251743D01*
X0325955Y0254526D01*
G37*
G36*
X0341267Y0269837D02*
X0341974Y0270544D01*
X0344757Y0267761D01*
X0344050Y0267054D01*
X0341267Y0269837D01*
G37*
D11*
G36*
X0341267Y0276113D02*
X0344050Y0278896D01*
X0344757Y0278189D01*
X0341974Y0275406D01*
X0341267Y0276113D01*
G37*
G36*
X0339875Y0277505D02*
X0342658Y0280288D01*
X0343365Y0279581D01*
X0340582Y0276798D01*
X0339875Y0277505D01*
G37*
G36*
X0338483Y0278897D02*
X0341266Y0281680D01*
X0341973Y0280973D01*
X0339190Y0278190D01*
X0338483Y0278897D01*
G37*
G36*
X0337091Y0280289D02*
X0339874Y0283072D01*
X0340581Y0282365D01*
X0337798Y0279582D01*
X0337091Y0280289D01*
G37*
G36*
X0335699Y0281681D02*
X0338482Y0284464D01*
X0339189Y0283757D01*
X0336406Y0280974D01*
X0335699Y0281681D01*
G37*
G36*
X0334307Y0283073D02*
X0337090Y0285856D01*
X0337797Y0285149D01*
X0335014Y0282366D01*
X0334307Y0283073D01*
G37*
G36*
X0332915Y0284464D02*
X0335698Y0287247D01*
X0336405Y0286540D01*
X0333622Y0283757D01*
X0332915Y0284464D01*
G37*
G36*
X0331523Y0285856D02*
X0334306Y0288639D01*
X0335013Y0287932D01*
X0332230Y0285149D01*
X0331523Y0285856D01*
G37*
G36*
X0330131Y0287248D02*
X0332914Y0290031D01*
X0333621Y0289324D01*
X0330838Y0286541D01*
X0330131Y0287248D01*
G37*
G36*
X0328739Y0288640D02*
X0331522Y0291423D01*
X0332229Y0290716D01*
X0329446Y0287933D01*
X0328739Y0288640D01*
G37*
G36*
X0327347Y0290032D02*
X0330130Y0292815D01*
X0330837Y0292108D01*
X0328054Y0289325D01*
X0327347Y0290032D01*
G37*
G36*
X0325955Y0291424D02*
X0328738Y0294207D01*
X0329445Y0293500D01*
X0326662Y0290717D01*
X0325955Y0291424D01*
G37*
G36*
X0302292Y0267761D02*
X0305075Y0270544D01*
X0305782Y0269837D01*
X0302999Y0267054D01*
X0302292Y0267761D01*
G37*
G36*
X0303684Y0266369D02*
X0306467Y0269152D01*
X0307174Y0268445D01*
X0304391Y0265662D01*
X0303684Y0266369D01*
G37*
G36*
X0305076Y0264977D02*
X0307859Y0267760D01*
X0308566Y0267053D01*
X0305783Y0264270D01*
X0305076Y0264977D01*
G37*
G36*
X0306468Y0263585D02*
X0309251Y0266368D01*
X0309958Y0265661D01*
X0307175Y0262878D01*
X0306468Y0263585D01*
G37*
G36*
X0307860Y0262193D02*
X0310643Y0264976D01*
X0311350Y0264269D01*
X0308567Y0261486D01*
X0307860Y0262193D01*
G37*
G36*
X0309252Y0260801D02*
X0312035Y0263584D01*
X0312742Y0262877D01*
X0309959Y0260094D01*
X0309252Y0260801D01*
G37*
G36*
X0310644Y0259410D02*
X0313427Y0262193D01*
X0314134Y0261486D01*
X0311351Y0258703D01*
X0310644Y0259410D01*
G37*
G36*
X0312036Y0258018D02*
X0314819Y0260801D01*
X0315526Y0260094D01*
X0312743Y0257311D01*
X0312036Y0258018D01*
G37*
G36*
X0313428Y0256626D02*
X0316211Y0259409D01*
X0316918Y0258702D01*
X0314135Y0255919D01*
X0313428Y0256626D01*
G37*
G36*
X0314820Y0255234D02*
X0317603Y0258017D01*
X0318310Y0257310D01*
X0315527Y0254527D01*
X0314820Y0255234D01*
G37*
G36*
X0316212Y0253842D02*
X0318995Y0256625D01*
X0319702Y0255918D01*
X0316919Y0253135D01*
X0316212Y0253842D01*
G37*
G36*
X0317604Y0252450D02*
X0320387Y0255233D01*
X0321094Y0254526D01*
X0318311Y0251743D01*
X0317604Y0252450D01*
G37*
G36*
X0142841Y0276113D02*
X0145624Y0278896D01*
X0146331Y0278189D01*
X0143548Y0275406D01*
X0142841Y0276113D01*
G37*
G36*
X0141449Y0277505D02*
X0144232Y0280288D01*
X0144939Y0279581D01*
X0142156Y0276798D01*
X0141449Y0277505D01*
G37*
G36*
X0140058Y0278897D02*
X0142841Y0281680D01*
X0143548Y0280973D01*
X0140765Y0278190D01*
X0140058Y0278897D01*
G37*
G36*
X0138666Y0280289D02*
X0141449Y0283072D01*
X0142156Y0282365D01*
X0139373Y0279582D01*
X0138666Y0280289D01*
G37*
G36*
X0137274Y0281681D02*
X0140057Y0284464D01*
X0140764Y0283757D01*
X0137981Y0280974D01*
X0137274Y0281681D01*
G37*
G36*
X0135882Y0283073D02*
X0138665Y0285856D01*
X0139372Y0285149D01*
X0136589Y0282366D01*
X0135882Y0283073D01*
G37*
G36*
X0134490Y0284464D02*
X0137273Y0287247D01*
X0137980Y0286540D01*
X0135197Y0283757D01*
X0134490Y0284464D01*
G37*
G36*
X0133098Y0285856D02*
X0135881Y0288639D01*
X0136588Y0287932D01*
X0133805Y0285149D01*
X0133098Y0285856D01*
G37*
G36*
X0131706Y0287248D02*
X0134489Y0290031D01*
X0135196Y0289324D01*
X0132413Y0286541D01*
X0131706Y0287248D01*
G37*
G36*
X0130314Y0288640D02*
X0133097Y0291423D01*
X0133804Y0290716D01*
X0131021Y0287933D01*
X0130314Y0288640D01*
G37*
G36*
X0128922Y0290032D02*
X0131705Y0292815D01*
X0132412Y0292108D01*
X0129629Y0289325D01*
X0128922Y0290032D01*
G37*
G36*
X0127530Y0291424D02*
X0130313Y0294207D01*
X0131020Y0293500D01*
X0128237Y0290717D01*
X0127530Y0291424D01*
G37*
G36*
X0103867Y0267761D02*
X0106650Y0270544D01*
X0107357Y0269837D01*
X0104574Y0267054D01*
X0103867Y0267761D01*
G37*
G36*
X0105259Y0266369D02*
X0108042Y0269152D01*
X0108749Y0268445D01*
X0105966Y0265662D01*
X0105259Y0266369D01*
G37*
G36*
X0106651Y0264977D02*
X0109434Y0267760D01*
X0110141Y0267053D01*
X0107358Y0264270D01*
X0106651Y0264977D01*
G37*
G36*
X0108043Y0263585D02*
X0110826Y0266368D01*
X0111533Y0265661D01*
X0108750Y0262878D01*
X0108043Y0263585D01*
G37*
G36*
X0109435Y0262193D02*
X0112218Y0264976D01*
X0112925Y0264269D01*
X0110142Y0261486D01*
X0109435Y0262193D01*
G37*
G36*
X0110827Y0260801D02*
X0113610Y0263584D01*
X0114317Y0262877D01*
X0111534Y0260094D01*
X0110827Y0260801D01*
G37*
G36*
X0112219Y0259410D02*
X0115002Y0262193D01*
X0115709Y0261486D01*
X0112926Y0258703D01*
X0112219Y0259410D01*
G37*
G36*
X0113611Y0258018D02*
X0116394Y0260801D01*
X0117101Y0260094D01*
X0114318Y0257311D01*
X0113611Y0258018D01*
G37*
G36*
X0115003Y0256626D02*
X0117786Y0259409D01*
X0118493Y0258702D01*
X0115710Y0255919D01*
X0115003Y0256626D01*
G37*
G36*
X0116395Y0255234D02*
X0119178Y0258017D01*
X0119885Y0257310D01*
X0117102Y0254527D01*
X0116395Y0255234D01*
G37*
G36*
X0117786Y0253842D02*
X0120569Y0256625D01*
X0121276Y0255918D01*
X0118493Y0253135D01*
X0117786Y0253842D01*
G37*
G36*
X0119178Y0252450D02*
X0121961Y0255233D01*
X0122668Y0254526D01*
X0119885Y0251743D01*
X0119178Y0252450D01*
G37*
D12*
X0119118Y0314710D03*
X0081118Y0314710D03*
X0279543Y0314710D03*
X0317543Y0314710D03*
D13*
X0019712Y0019704D03*
X0019712Y0026396D03*
X0039712Y0026396D03*
X0045962Y0026396D03*
X0045962Y0019704D03*
X0039712Y0019704D03*
X0057212Y0019704D03*
X0063462Y0019704D03*
X0069712Y0019704D03*
X0069712Y0026396D03*
X0063462Y0026396D03*
X0057212Y0026396D03*
X0040962Y0052204D03*
X0040962Y0058896D03*
X0032212Y0058896D03*
X0032212Y0052204D03*
X0032212Y0097204D03*
X0032212Y0103896D03*
X0040962Y0103896D03*
X0040962Y0097204D03*
X0069712Y0090146D03*
X0069712Y0083454D03*
X0088462Y0113454D03*
X0088462Y0120146D03*
X0087212Y0127204D03*
X0087212Y0133896D03*
X0078462Y0133896D03*
X0078462Y0127204D03*
X0069712Y0127204D03*
X0069712Y0133896D03*
X0054308Y0171800D03*
X0047615Y0171800D03*
X0059712Y0190954D03*
X0059712Y0197646D03*
X0075212Y0210954D03*
X0081712Y0210954D03*
X0081712Y0217646D03*
X0075212Y0217646D03*
X0064308Y0231800D03*
X0057615Y0231800D03*
X0057212Y0245954D03*
X0057212Y0252646D03*
X0049712Y0252646D03*
X0049712Y0245954D03*
X0028462Y0255954D03*
X0028462Y0262646D03*
X0019712Y0262646D03*
X0019712Y0255954D03*
X0012212Y0255954D03*
X0012212Y0262646D03*
X0025962Y0215146D03*
X0025962Y0208454D03*
X0017212Y0210146D03*
X0017212Y0203454D03*
X0008462Y0196396D03*
X0008462Y0189704D03*
X0073462Y0253454D03*
X0073462Y0260146D03*
X0084712Y0260146D03*
X0084712Y0253454D03*
X0092615Y0247425D03*
X0095962Y0253454D03*
X0099308Y0247425D03*
X0095962Y0260146D03*
X0098058Y0282051D03*
X0098058Y0288488D03*
X0091365Y0288488D03*
X0091365Y0282051D03*
X0115740Y0299300D03*
X0122433Y0299300D03*
X0130115Y0299300D03*
X0136808Y0299300D03*
X0120179Y0327981D03*
X0113486Y0327981D03*
X0105962Y0328060D03*
X0099269Y0328060D03*
X0064308Y0380550D03*
X0057615Y0380550D03*
X0055962Y0397204D03*
X0055962Y0403896D03*
X0043462Y0403896D03*
X0043462Y0397204D03*
X0070962Y0397204D03*
X0070962Y0403896D03*
X0085962Y0403896D03*
X0085962Y0397204D03*
X0100962Y0397204D03*
X0100962Y0403896D03*
X0113462Y0403896D03*
X0113462Y0397204D03*
X0170676Y0409438D03*
X0170676Y0416131D03*
X0180676Y0416131D03*
X0180676Y0409438D03*
X0181926Y0356131D03*
X0181926Y0349438D03*
X0171926Y0349438D03*
X0171926Y0356131D03*
X0203334Y0326209D03*
X0210027Y0326209D03*
X0220853Y0326603D03*
X0220853Y0333296D03*
X0228924Y0333099D03*
X0228924Y0326406D03*
X0224003Y0316957D03*
X0224003Y0310265D03*
X0210027Y0304162D03*
X0203334Y0304162D03*
X0187783Y0306131D03*
X0187783Y0312824D03*
X0210637Y0262646D03*
X0210637Y0255954D03*
X0218137Y0255954D03*
X0218137Y0262646D03*
X0226887Y0262646D03*
X0226887Y0255954D03*
X0248137Y0252646D03*
X0248137Y0245954D03*
X0255637Y0245954D03*
X0255637Y0252646D03*
X0271887Y0253454D03*
X0271887Y0260146D03*
X0283137Y0260146D03*
X0283137Y0253454D03*
X0291040Y0247425D03*
X0294387Y0253454D03*
X0297733Y0247425D03*
X0294387Y0260146D03*
X0296483Y0282051D03*
X0296483Y0288488D03*
X0289790Y0288488D03*
X0289790Y0282051D03*
X0314165Y0299300D03*
X0320858Y0299300D03*
X0328540Y0299300D03*
X0335233Y0299300D03*
X0318604Y0327981D03*
X0311912Y0327981D03*
X0304387Y0328060D03*
X0297694Y0328060D03*
X0262733Y0380550D03*
X0256040Y0380550D03*
X0254387Y0397204D03*
X0254387Y0403896D03*
X0241887Y0403896D03*
X0241887Y0397204D03*
X0269387Y0397204D03*
X0269387Y0403896D03*
X0284387Y0403896D03*
X0284387Y0397204D03*
X0299387Y0397204D03*
X0299387Y0403896D03*
X0311887Y0403896D03*
X0311887Y0397204D03*
X0317915Y0246800D03*
X0324608Y0246800D03*
X0297733Y0231800D03*
X0291040Y0231800D03*
X0286887Y0217646D03*
X0286887Y0210954D03*
X0280137Y0210954D03*
X0273637Y0210954D03*
X0273637Y0217646D03*
X0280137Y0217646D03*
X0262733Y0231800D03*
X0256040Y0231800D03*
X0258137Y0197646D03*
X0258137Y0190954D03*
X0252733Y0171800D03*
X0246040Y0171800D03*
X0224387Y0208454D03*
X0224387Y0215146D03*
X0215637Y0210146D03*
X0215637Y0203454D03*
X0206887Y0196396D03*
X0206887Y0189704D03*
X0189348Y0130284D03*
X0189348Y0123591D03*
X0167320Y0095875D03*
X0167320Y0089182D03*
X0122212Y0046396D03*
X0115962Y0046396D03*
X0115962Y0039704D03*
X0122212Y0039704D03*
X0109712Y0039704D03*
X0109712Y0046396D03*
X0114712Y0026396D03*
X0114712Y0019704D03*
X0134712Y0019704D03*
X0134712Y0026396D03*
X0093462Y0026396D03*
X0093462Y0019704D03*
X0176759Y0018926D03*
X0176759Y0025619D03*
X0218137Y0026396D03*
X0218137Y0019704D03*
X0238137Y0019704D03*
X0244387Y0019704D03*
X0244387Y0026396D03*
X0238137Y0026396D03*
X0255637Y0026396D03*
X0261887Y0026396D03*
X0268137Y0026396D03*
X0268137Y0019704D03*
X0261887Y0019704D03*
X0255637Y0019704D03*
X0239387Y0052204D03*
X0239387Y0058896D03*
X0230637Y0058896D03*
X0230637Y0052204D03*
X0230637Y0097204D03*
X0230637Y0103896D03*
X0239387Y0103896D03*
X0239387Y0097204D03*
X0268137Y0090146D03*
X0268137Y0083454D03*
X0286887Y0113454D03*
X0286887Y0120146D03*
X0285637Y0127204D03*
X0285637Y0133896D03*
X0276887Y0133896D03*
X0276887Y0127204D03*
X0268137Y0127204D03*
X0268137Y0133896D03*
X0298540Y0196800D03*
X0305233Y0196800D03*
X0325233Y0203355D03*
X0325233Y0209605D03*
X0331926Y0209605D03*
X0331926Y0203355D03*
X0320637Y0046396D03*
X0320637Y0039704D03*
X0314387Y0039704D03*
X0314387Y0046396D03*
X0308137Y0046396D03*
X0308137Y0039704D03*
X0313137Y0026396D03*
X0313137Y0019704D03*
X0291887Y0019704D03*
X0291887Y0026396D03*
X0333137Y0026396D03*
X0333137Y0019704D03*
X0133501Y0203355D03*
X0133501Y0209605D03*
X0126808Y0209605D03*
X0126808Y0203355D03*
X0106808Y0196800D03*
X0100115Y0196800D03*
X0088462Y0210954D03*
X0088462Y0217646D03*
X0092615Y0231800D03*
X0099308Y0231800D03*
X0119490Y0246800D03*
X0126183Y0246800D03*
D14*
X0085962Y0246880D03*
X0083462Y0246880D03*
X0080962Y0246880D03*
X0078462Y0246880D03*
X0075962Y0246880D03*
X0073462Y0246880D03*
X0070962Y0246880D03*
X0070962Y0225480D03*
X0073462Y0225480D03*
X0075962Y0225480D03*
X0078462Y0225480D03*
X0080962Y0225480D03*
X0083462Y0225480D03*
X0085962Y0225480D03*
X0269387Y0225480D03*
X0271887Y0225480D03*
X0274387Y0225480D03*
X0276887Y0225480D03*
X0279387Y0225480D03*
X0281887Y0225480D03*
X0284387Y0225480D03*
X0284387Y0246880D03*
X0281887Y0246880D03*
X0279387Y0246880D03*
X0276887Y0246880D03*
X0274387Y0246880D03*
X0271887Y0246880D03*
X0269387Y0246880D03*
D15*
X0263137Y0245954D03*
X0262733Y0239300D03*
X0256040Y0239300D03*
X0263137Y0252646D03*
X0240476Y0238533D03*
X0240476Y0231841D03*
X0233137Y0215146D03*
X0233137Y0208454D03*
X0266040Y0200550D03*
X0272733Y0200550D03*
X0266887Y0210954D03*
X0266887Y0217646D03*
X0284790Y0203050D03*
X0291483Y0203050D03*
X0299161Y0183050D03*
X0305853Y0183050D03*
X0297733Y0238670D03*
X0291040Y0238670D03*
X0234387Y0255954D03*
X0234387Y0262646D03*
X0257556Y0313660D03*
X0257556Y0320353D03*
X0254790Y0329300D03*
X0261483Y0329300D03*
X0210027Y0334083D03*
X0203334Y0334083D03*
X0177743Y0312824D03*
X0177743Y0306131D03*
X0173806Y0283690D03*
X0167113Y0283690D03*
X0182861Y0283690D03*
X0189554Y0283690D03*
X0165470Y0376150D03*
X0165470Y0382843D03*
X0162320Y0390747D03*
X0162320Y0397440D03*
X0063058Y0329300D03*
X0056365Y0329300D03*
X0059131Y0320353D03*
X0059131Y0313660D03*
X0035962Y0262646D03*
X0035962Y0255954D03*
X0042051Y0238533D03*
X0042051Y0231841D03*
X0034712Y0215146D03*
X0034712Y0208454D03*
X0057615Y0239300D03*
X0064308Y0239300D03*
X0064712Y0245954D03*
X0064712Y0252646D03*
X0092615Y0238670D03*
X0099308Y0238670D03*
X0068462Y0217646D03*
X0068462Y0210954D03*
X0067615Y0200550D03*
X0074308Y0200550D03*
X0086365Y0203050D03*
X0093058Y0203050D03*
X0100735Y0183050D03*
X0107428Y0183050D03*
X0054308Y0165550D03*
X0047615Y0165550D03*
X0068462Y0120146D03*
X0068462Y0113454D03*
X0068462Y0103276D03*
X0068462Y0096583D03*
X0078462Y0090146D03*
X0078462Y0083454D03*
X0085115Y0080550D03*
X0091808Y0080550D03*
X0088462Y0097204D03*
X0088462Y0103896D03*
X0049712Y0103896D03*
X0049712Y0097204D03*
X0049712Y0081396D03*
X0049712Y0074704D03*
X0049712Y0058896D03*
X0049712Y0052204D03*
X0038058Y0044300D03*
X0031365Y0044300D03*
X0029712Y0075954D03*
X0029712Y0082646D03*
X0228137Y0082646D03*
X0228137Y0075954D03*
X0248137Y0074704D03*
X0248137Y0081396D03*
X0248137Y0097204D03*
X0248137Y0103896D03*
X0266887Y0103276D03*
X0266887Y0096583D03*
X0276887Y0090146D03*
X0276887Y0083454D03*
X0283540Y0080550D03*
X0290233Y0080550D03*
X0286887Y0097204D03*
X0286887Y0103896D03*
X0266887Y0113454D03*
X0266887Y0120146D03*
X0252733Y0165550D03*
X0246040Y0165550D03*
X0248137Y0058896D03*
X0248137Y0052204D03*
X0236483Y0044300D03*
X0229790Y0044300D03*
D16*
X0228137Y0225314D03*
X0233137Y0225314D03*
X0223137Y0225314D03*
X0218137Y0225314D03*
X0218137Y0245786D03*
X0223137Y0245786D03*
X0228137Y0245786D03*
X0233137Y0245786D03*
X0034712Y0245786D03*
X0029712Y0245786D03*
X0024712Y0245786D03*
X0019712Y0245786D03*
X0019712Y0225314D03*
X0024712Y0225314D03*
X0029712Y0225314D03*
X0034712Y0225314D03*
D17*
X0029712Y0028631D03*
X0033452Y0019969D03*
X0025972Y0019969D03*
X0075972Y0019969D03*
X0083452Y0019969D03*
X0079712Y0028631D03*
X0100972Y0019969D03*
X0108452Y0019969D03*
X0104712Y0028631D03*
X0120972Y0019969D03*
X0128452Y0019969D03*
X0124712Y0028631D03*
X0140972Y0019969D03*
X0148452Y0019969D03*
X0144712Y0028631D03*
X0224397Y0019969D03*
X0231877Y0019969D03*
X0228137Y0028631D03*
X0274397Y0019969D03*
X0281877Y0019969D03*
X0278137Y0028631D03*
X0299397Y0019969D03*
X0306877Y0019969D03*
X0303137Y0028631D03*
X0319397Y0019969D03*
X0326877Y0019969D03*
X0323137Y0028631D03*
X0339397Y0019969D03*
X0346877Y0019969D03*
X0343137Y0028631D03*
D18*
X0253127Y0178719D03*
X0245647Y0178719D03*
X0249387Y0187381D03*
X0298147Y0203719D03*
X0305627Y0203719D03*
X0301887Y0212381D03*
X0107202Y0203719D03*
X0099722Y0203719D03*
X0103462Y0212381D03*
X0054702Y0178719D03*
X0047222Y0178719D03*
X0050962Y0187381D03*
D19*
X0044086Y0304479D03*
X0044086Y0320621D03*
X0049712Y0339979D03*
X0049712Y0356121D03*
X0106587Y0354871D03*
X0106587Y0338729D03*
X0242511Y0320621D03*
X0242511Y0304479D03*
X0248137Y0339979D03*
X0248137Y0356121D03*
X0305012Y0354871D03*
X0305012Y0338729D03*
D20*
X0223237Y0290700D03*
X0223237Y0281700D03*
X0223237Y0272700D03*
X0024812Y0272700D03*
X0024812Y0281700D03*
X0024812Y0290700D03*
D21*
X0049612Y0281800D03*
X0248037Y0281800D03*
D22*
X0267987Y0356900D03*
X0276987Y0356900D03*
X0285987Y0356900D03*
X0087562Y0356900D03*
X0078562Y0356900D03*
X0069562Y0356900D03*
D23*
X0078462Y0381700D03*
X0276887Y0381700D03*
D24*
X0324741Y0235929D03*
X0327300Y0235929D03*
X0329859Y0235929D03*
X0332418Y0235929D03*
X0332418Y0217031D03*
X0329859Y0217031D03*
X0327300Y0217031D03*
X0324741Y0217031D03*
X0133993Y0217031D03*
X0131434Y0217031D03*
X0128875Y0217031D03*
X0126316Y0217031D03*
X0126316Y0235929D03*
X0128875Y0235929D03*
X0131434Y0235929D03*
X0133993Y0235929D03*
D25*
X0082300Y0119989D03*
X0079741Y0119989D03*
X0077182Y0119989D03*
X0074623Y0119989D03*
X0074623Y0097351D03*
X0077182Y0097351D03*
X0079741Y0097351D03*
X0082300Y0097351D03*
X0043550Y0089369D03*
X0040991Y0089369D03*
X0038432Y0089369D03*
X0035873Y0089369D03*
X0035873Y0066731D03*
X0038432Y0066731D03*
X0040991Y0066731D03*
X0043550Y0066731D03*
X0234298Y0066731D03*
X0236857Y0066731D03*
X0239416Y0066731D03*
X0241976Y0066731D03*
X0241976Y0089369D03*
X0239416Y0089369D03*
X0236857Y0089369D03*
X0234298Y0089369D03*
X0273048Y0097351D03*
X0275607Y0097351D03*
X0278166Y0097351D03*
X0280726Y0097351D03*
X0280726Y0119989D03*
X0278166Y0119989D03*
X0275607Y0119989D03*
X0273048Y0119989D03*
X0182015Y0371465D03*
X0179456Y0371465D03*
X0176897Y0371465D03*
X0174338Y0371465D03*
X0174338Y0394103D03*
X0176897Y0394103D03*
X0179456Y0394103D03*
X0182015Y0394103D03*
D26*
X0218137Y0078040D03*
X0218137Y0070560D03*
X0019712Y0070560D03*
X0019712Y0078040D03*
D27*
X0017212Y0301101D03*
X0017212Y0319999D03*
X0039712Y0368601D03*
X0039712Y0387499D03*
D28*
X0023442Y0388675D03*
X0008481Y0388675D03*
X0032212Y0349280D03*
X0032212Y0334320D03*
X0169146Y0362784D03*
X0184107Y0362784D03*
X0194446Y0354585D03*
X0209407Y0354585D03*
X0209407Y0378109D03*
X0209407Y0389034D03*
X0194446Y0389034D03*
X0194446Y0378109D03*
X0185031Y0401534D03*
X0194446Y0406652D03*
X0209407Y0406652D03*
X0170071Y0401534D03*
D29*
X0195361Y0319024D03*
X0195361Y0316465D03*
X0195361Y0313906D03*
X0195361Y0311347D03*
X0217999Y0311347D03*
X0217999Y0313906D03*
X0217999Y0316465D03*
X0217999Y0319024D03*
M02*
