G75*
%MOIN*%
%OFA0B0*%
%FSLAX25Y25*%
%IPPOS*%
%LPD*%
%AMOC8*
5,1,8,0,0,1.08239X$1,22.5*
%
%ADD10R,0.08000X0.08000*%
%ADD11OC8,0.09680*%
%ADD12OC8,0.10600*%
%ADD13OC8,0.07200*%
%ADD14OC8,0.04800*%
%ADD15C,0.04956*%
%ADD16C,0.04600*%
%ADD17OC8,0.07600*%
%ADD18OC8,0.08000*%
%ADD19C,0.06200*%
%ADD20C,0.07200*%
%ADD21R,0.06531X0.06531*%
%ADD22OC8,0.06531*%
%ADD23C,0.10600*%
D10*
X0017369Y0192991D03*
X0027212Y0192991D03*
X0037054Y0192991D03*
X0068619Y0192991D03*
X0078462Y0192991D03*
X0088304Y0192991D03*
X0119869Y0192991D03*
X0129712Y0192991D03*
X0139554Y0192991D03*
X0088304Y0270617D03*
X0078462Y0270617D03*
X0068619Y0270617D03*
X0068619Y0339054D03*
X0078462Y0339054D03*
X0088304Y0339054D03*
X0215794Y0192991D03*
X0225637Y0192991D03*
X0235479Y0192991D03*
X0267044Y0192991D03*
X0276887Y0192991D03*
X0286729Y0192991D03*
X0318294Y0192991D03*
X0328137Y0192991D03*
X0337979Y0192991D03*
X0286729Y0270617D03*
X0276887Y0270617D03*
X0267044Y0270617D03*
X0267044Y0339054D03*
X0276887Y0339054D03*
X0286729Y0339054D03*
D11*
X0295391Y0298176D03*
X0258383Y0298176D03*
X0258383Y0220550D03*
X0244141Y0220550D03*
X0207133Y0220550D03*
X0148216Y0220550D03*
X0111208Y0220550D03*
X0096966Y0220550D03*
X0059958Y0220550D03*
X0045716Y0220550D03*
X0008708Y0220550D03*
X0059958Y0298176D03*
X0096966Y0298176D03*
X0295391Y0220550D03*
X0309633Y0220550D03*
X0346641Y0220550D03*
D12*
X0295391Y0366613D03*
X0258383Y0366613D03*
X0096966Y0366613D03*
X0059958Y0366613D03*
D13*
X0033762Y0397900D03*
X0033762Y0415700D03*
X0008162Y0415700D03*
X0008162Y0397900D03*
X0123162Y0397900D03*
X0123162Y0415700D03*
X0148762Y0415700D03*
X0148762Y0397900D03*
X0206587Y0397900D03*
X0206587Y0415700D03*
X0232187Y0415700D03*
X0232187Y0397900D03*
X0321587Y0397900D03*
X0321587Y0415700D03*
X0347187Y0415700D03*
X0347187Y0397900D03*
D14*
X0347025Y0379088D03*
X0347025Y0374088D03*
X0347025Y0369088D03*
X0347025Y0364088D03*
X0347025Y0359088D03*
X0342025Y0359088D03*
X0342025Y0364088D03*
X0342025Y0369088D03*
X0342025Y0374088D03*
X0342025Y0379088D03*
X0148600Y0379088D03*
X0148600Y0374088D03*
X0148600Y0369088D03*
X0148600Y0364088D03*
X0148600Y0359088D03*
X0143600Y0359088D03*
X0143600Y0364088D03*
X0143600Y0369088D03*
X0143600Y0374088D03*
X0143600Y0379088D03*
D15*
X0116336Y0413936D03*
X0108462Y0413936D03*
X0100588Y0413936D03*
X0086336Y0413936D03*
X0078462Y0413936D03*
X0070588Y0413936D03*
X0056336Y0413936D03*
X0048462Y0413936D03*
X0040588Y0413936D03*
X0239013Y0413936D03*
X0246887Y0413936D03*
X0254761Y0413936D03*
X0269013Y0413936D03*
X0276887Y0413936D03*
X0284761Y0413936D03*
X0299013Y0413936D03*
X0306887Y0413936D03*
X0314761Y0413936D03*
D16*
X0304712Y0169113D03*
X0304712Y0159113D03*
X0304712Y0149113D03*
X0106287Y0149113D03*
X0106287Y0159113D03*
X0106287Y0169113D03*
D17*
X0022212Y0009300D03*
X0022212Y0039300D03*
X0022212Y0049300D03*
X0022212Y0049300D03*
X0022212Y0059300D03*
X0022212Y0089300D03*
X0013451Y0116800D03*
X0022212Y0144300D03*
X0022212Y0174300D03*
X0022212Y0184300D03*
X0078462Y0184300D03*
X0078462Y0174300D03*
X0078462Y0144300D03*
X0103462Y0116800D03*
X0113462Y0116800D03*
X0097212Y0089300D03*
X0097212Y0059300D03*
X0097212Y0049300D03*
X0097212Y0049300D03*
X0097212Y0039300D03*
X0097212Y0009300D03*
X0059712Y0009300D03*
X0059712Y0039300D03*
X0059712Y0049300D03*
X0059712Y0049300D03*
X0059712Y0059300D03*
X0059712Y0089300D03*
X0053451Y0116800D03*
X0043451Y0116800D03*
X0134712Y0089300D03*
X0143462Y0116800D03*
X0155046Y0116761D03*
X0165046Y0116761D03*
X0177546Y0144536D03*
X0177546Y0174536D03*
X0177546Y0184536D03*
X0134712Y0184300D03*
X0134712Y0174300D03*
X0134712Y0144300D03*
X0177546Y0088985D03*
X0177546Y0058985D03*
X0177546Y0049103D03*
X0177546Y0048985D03*
X0177546Y0039103D03*
X0177546Y0009103D03*
X0134712Y0009300D03*
X0134712Y0039300D03*
X0134712Y0049300D03*
X0134712Y0049300D03*
X0134712Y0059300D03*
X0195046Y0116761D03*
X0211876Y0116800D03*
X0220637Y0089300D03*
X0241876Y0116800D03*
X0251876Y0116800D03*
X0258137Y0089300D03*
X0258137Y0059300D03*
X0258137Y0049300D03*
X0258137Y0049300D03*
X0258137Y0039300D03*
X0258137Y0009300D03*
X0220637Y0009300D03*
X0220637Y0039300D03*
X0220637Y0049300D03*
X0220637Y0049300D03*
X0220637Y0059300D03*
X0295637Y0059300D03*
X0295637Y0049300D03*
X0295637Y0049300D03*
X0295637Y0039300D03*
X0295637Y0009300D03*
X0333137Y0009300D03*
X0333137Y0039300D03*
X0333137Y0049300D03*
X0333137Y0049300D03*
X0333137Y0059300D03*
X0333137Y0089300D03*
X0341887Y0116800D03*
X0333137Y0144300D03*
X0333137Y0174300D03*
X0333137Y0184300D03*
X0276887Y0184300D03*
X0276887Y0174300D03*
X0276887Y0144300D03*
X0301887Y0116800D03*
X0311887Y0116800D03*
X0295637Y0089300D03*
X0220637Y0144300D03*
X0220637Y0174300D03*
X0220637Y0184300D03*
D18*
X0020337Y0336800D03*
X0020337Y0346800D03*
X0020337Y0356800D03*
X0020337Y0366800D03*
X0020337Y0376800D03*
X0010337Y0376800D03*
X0010337Y0366800D03*
X0010337Y0356800D03*
X0010337Y0346800D03*
X0010337Y0336800D03*
D19*
X0167546Y0273060D03*
X0177546Y0273060D03*
X0187546Y0273060D03*
X0187546Y0236446D03*
X0177546Y0236446D03*
X0167546Y0236446D03*
X0167546Y0200225D03*
X0177546Y0200225D03*
X0187546Y0200225D03*
D20*
X0187546Y0299280D03*
X0177546Y0299280D03*
X0167546Y0299280D03*
X0167546Y0319280D03*
X0177546Y0319280D03*
X0187546Y0319280D03*
D21*
X0187389Y0330776D03*
X0187389Y0340776D03*
D22*
X0177546Y0340776D03*
X0167704Y0340776D03*
X0167704Y0330776D03*
X0177546Y0330776D03*
D23*
X0159830Y0368335D03*
X0195263Y0368335D03*
M02*
