G75*
%MOIN*%
%OFA0B0*%
%FSLAX25Y25*%
%IPPOS*%
%LPD*%
%AMOC8*
5,1,8,0,0,1.08239X$1,22.5*
%
%ADD10R,0.08000X0.08000*%
%ADD11OC8,0.09680*%
%ADD12OC8,0.10600*%
%ADD13OC8,0.07200*%
%ADD14OC8,0.04800*%
%ADD15C,0.04956*%
%ADD16C,0.04600*%
%ADD17OC8,0.07600*%
%ADD18OC8,0.08000*%
%ADD19C,0.06200*%
%ADD20C,0.07200*%
D10*
X0016957Y0192991D03*
X0026800Y0192991D03*
X0036643Y0192991D03*
X0068207Y0192991D03*
X0078050Y0192991D03*
X0087893Y0192991D03*
X0119457Y0192991D03*
X0129300Y0192991D03*
X0139143Y0192991D03*
X0087893Y0270617D03*
X0078050Y0270617D03*
X0068207Y0270617D03*
X0068207Y0339054D03*
X0078050Y0339054D03*
X0087893Y0339054D03*
X0167548Y0339202D03*
X0177391Y0339202D03*
X0187233Y0339202D03*
X0266633Y0339054D03*
X0276475Y0339054D03*
X0286318Y0339054D03*
X0286318Y0270617D03*
X0276475Y0270617D03*
X0266633Y0270617D03*
X0266633Y0192991D03*
X0276475Y0192991D03*
X0286318Y0192991D03*
X0317883Y0192991D03*
X0327725Y0192991D03*
X0337568Y0192991D03*
X0235068Y0192991D03*
X0225225Y0192991D03*
X0215383Y0192991D03*
D11*
X0206721Y0220550D03*
X0243729Y0220550D03*
X0257971Y0220550D03*
X0294979Y0220550D03*
X0309221Y0220550D03*
X0346229Y0220550D03*
X0294979Y0298176D03*
X0257971Y0298176D03*
X0147804Y0220550D03*
X0110796Y0220550D03*
X0096554Y0220550D03*
X0059546Y0220550D03*
X0045304Y0220550D03*
X0008296Y0220550D03*
X0059546Y0298176D03*
X0096554Y0298176D03*
D12*
X0096554Y0366613D03*
X0059546Y0366613D03*
X0158887Y0366761D03*
X0195894Y0366761D03*
X0257971Y0366613D03*
X0294979Y0366613D03*
D13*
X0321175Y0397900D03*
X0321175Y0415700D03*
X0346775Y0415700D03*
X0346775Y0397900D03*
X0231775Y0397900D03*
X0231775Y0415700D03*
X0206175Y0415700D03*
X0206175Y0397900D03*
X0148350Y0397900D03*
X0148350Y0415700D03*
X0122750Y0415700D03*
X0122750Y0397900D03*
X0033350Y0397900D03*
X0033350Y0415700D03*
X0007750Y0415700D03*
X0007750Y0397900D03*
D14*
X0007912Y0379088D03*
X0007912Y0374088D03*
X0007912Y0369088D03*
X0007912Y0364088D03*
X0007912Y0359088D03*
X0012912Y0359088D03*
X0012912Y0364088D03*
X0012912Y0369088D03*
X0012912Y0374088D03*
X0012912Y0379088D03*
X0206337Y0379088D03*
X0206337Y0374088D03*
X0206337Y0369088D03*
X0206337Y0364088D03*
X0206337Y0359088D03*
X0211337Y0359088D03*
X0211337Y0364088D03*
X0211337Y0369088D03*
X0211337Y0374088D03*
X0211337Y0379088D03*
D15*
X0238601Y0413936D03*
X0246475Y0413936D03*
X0254349Y0413936D03*
X0268601Y0413936D03*
X0276475Y0413936D03*
X0284349Y0413936D03*
X0298601Y0413936D03*
X0306475Y0413936D03*
X0314349Y0413936D03*
X0115924Y0413936D03*
X0108050Y0413936D03*
X0100176Y0413936D03*
X0085924Y0413936D03*
X0078050Y0413936D03*
X0070176Y0413936D03*
X0055924Y0413936D03*
X0048050Y0413936D03*
X0040176Y0413936D03*
D16*
X0050225Y0169113D03*
X0050225Y0159113D03*
X0050225Y0149113D03*
X0248650Y0149113D03*
X0248650Y0159113D03*
X0248650Y0169113D03*
D17*
X0021800Y0009300D03*
X0021800Y0039300D03*
X0021800Y0049300D03*
X0021800Y0049300D03*
X0021800Y0059300D03*
X0021800Y0089300D03*
X0013050Y0116800D03*
X0021800Y0144300D03*
X0043050Y0116800D03*
X0053050Y0116800D03*
X0059300Y0089300D03*
X0059300Y0059300D03*
X0059300Y0049300D03*
X0059300Y0049300D03*
X0059300Y0039300D03*
X0059300Y0009300D03*
X0096800Y0009300D03*
X0096800Y0039300D03*
X0096800Y0049300D03*
X0096800Y0049300D03*
X0096800Y0059300D03*
X0096800Y0089300D03*
X0103061Y0116800D03*
X0113061Y0116800D03*
X0134300Y0144300D03*
X0143061Y0116800D03*
X0159891Y0116761D03*
X0177391Y0144536D03*
X0189891Y0116761D03*
X0199891Y0116761D03*
X0211475Y0116800D03*
X0220225Y0144300D03*
X0241475Y0116800D03*
X0251475Y0116800D03*
X0257725Y0089300D03*
X0257725Y0059300D03*
X0257725Y0049300D03*
X0257725Y0049300D03*
X0257725Y0039300D03*
X0257725Y0009300D03*
X0220225Y0009300D03*
X0220225Y0039300D03*
X0220225Y0049300D03*
X0220225Y0049300D03*
X0220225Y0059300D03*
X0220225Y0089300D03*
X0177391Y0088985D03*
X0177391Y0058985D03*
X0177391Y0049103D03*
X0177391Y0048985D03*
X0177391Y0039103D03*
X0177391Y0009103D03*
X0134300Y0009300D03*
X0134300Y0039300D03*
X0134300Y0049300D03*
X0134300Y0049300D03*
X0134300Y0059300D03*
X0134300Y0089300D03*
X0078050Y0144300D03*
X0078050Y0174300D03*
X0078050Y0184300D03*
X0021800Y0184300D03*
X0021800Y0174300D03*
X0134300Y0174300D03*
X0134300Y0184300D03*
X0177391Y0184536D03*
X0177391Y0174536D03*
X0220225Y0174300D03*
X0220225Y0184300D03*
X0276475Y0184300D03*
X0276475Y0174300D03*
X0276475Y0144300D03*
X0301486Y0116800D03*
X0311486Y0116800D03*
X0332725Y0144300D03*
X0341486Y0116800D03*
X0332725Y0089300D03*
X0332725Y0059300D03*
X0332725Y0049300D03*
X0332725Y0049300D03*
X0332725Y0039300D03*
X0332725Y0009300D03*
X0295225Y0009300D03*
X0295225Y0039300D03*
X0295225Y0049300D03*
X0295225Y0049300D03*
X0295225Y0059300D03*
X0295225Y0089300D03*
X0332725Y0174300D03*
X0332725Y0184300D03*
D18*
X0334600Y0336800D03*
X0334600Y0346800D03*
X0334600Y0356800D03*
X0334600Y0366800D03*
X0334600Y0376800D03*
X0344600Y0376800D03*
X0344600Y0366800D03*
X0344600Y0356800D03*
X0344600Y0346800D03*
X0344600Y0336800D03*
D19*
X0187391Y0236446D03*
X0177391Y0236446D03*
X0167391Y0236446D03*
X0167391Y0200225D03*
X0177391Y0200225D03*
X0187391Y0200225D03*
D20*
X0187391Y0263060D03*
X0177391Y0263060D03*
X0167391Y0263060D03*
X0167391Y0283060D03*
X0177391Y0283060D03*
X0187391Y0283060D03*
X0187391Y0299280D03*
X0177391Y0299280D03*
X0167391Y0299280D03*
X0167391Y0319280D03*
X0177391Y0319280D03*
X0187391Y0319280D03*
M02*
