%
M48
M72
T01C0.01969
T02C0.02362
T03C0.02400
T04C0.02756
T05C0.03937
T06C0.04000
T07C0.04331
T08C0.04724
T09C0.05000
T10C0.05906
T11C0.07480
T12C0.08268
%
T01
X190932Y230146
X202743Y242745
X158905Y402194
T02
X162586Y406524
X170460Y389595
X154318Y385658
X134712Y364300
X144462Y349300
X148462Y345550
X140962Y338050
X142962Y328800
X157861Y351406
X128334Y380934
X113373Y358099
X97212Y351800
X113373Y334083
X113462Y321800
X120962Y306800
X125462Y294050
X118462Y280550
X122837Y270675
X115962Y266800
X112212Y270550
X103462Y273050
X90212Y261550
X79087Y253300
X70962Y241800
X69712Y235550
X78462Y231800
X85962Y238050
X103462Y226800
X106587Y238050
X114712Y233050
X117837Y238300
X123587Y224800
X134712Y223050
X139712Y209300
X151562Y212824
X172035Y220698
X182664Y231328
X209387Y236800
X234387Y234300
X238137Y246800
X244387Y259925
X249387Y258050
X256637Y262425
X260637Y279300
X256887Y284300
X268137Y285550
X284387Y283050
X301887Y273050
X310637Y270550
X314387Y266800
X321262Y270675
X329512Y263175
X334387Y273050
X345637Y263050
X348137Y275550
X348887Y282300
X323887Y294050
X319387Y306800
X309387Y294300
X316887Y280550
X304762Y255050
X305012Y238050
X313137Y233050
X316262Y238300
X322012Y224800
X333137Y223050
X338137Y209300
X309887Y200800
X308137Y210550
X294387Y210550
X278137Y204300
X270387Y205925
X261512Y210175
X252387Y214425
X248762Y206550
X252762Y199800
X264387Y185550
X258137Y181800
X239387Y170550
X254387Y159300
X255499Y151406
X253137Y140550
X263137Y145550
X245263Y127391
X235588Y144950
X221137Y121300
X230637Y109300
X228137Y90550
X239387Y84300
X239387Y71800
X248137Y65550
X267704Y58887
X283137Y49300
X278137Y36800
X285637Y25550
X266887Y33050
X253137Y31800
X212192Y31721
X210312Y26150
X197231Y26997
X187783Y26997
X164161Y31721
X144712Y34550
X122212Y34550
X142212Y65550
X143212Y73050
X151562Y64792
X170460Y64792
X192507Y55343
X208255Y74241
X209042Y66367
X209042Y58099
X197231Y82115
X198806Y96288
X210637Y93050
X211887Y105550
X205105Y127784
X194082Y141957
X201956Y156131
X205637Y146032
X210637Y165550
X210637Y175550
X194082Y193926
X239387Y213050
X250637Y235550
X268137Y235550
X269387Y241800
X276887Y231800
X284387Y238050
X277512Y253300
X288637Y261550
X301887Y226800
X303137Y190550
X313137Y181800
X293137Y183050
X284387Y185550
X289387Y169300
X284712Y161125
X285637Y153050
X289387Y143050
X293137Y131800
X275637Y109300
X279387Y103050
X261887Y108276
X303235Y70550
X313137Y80550
X341637Y73050
X340637Y65550
X343137Y34550
X320637Y34550
X332477Y116800
X323137Y128050
X316887Y129300
X328137Y133050
X230637Y268050
X215637Y269300
X210012Y271800
X214387Y281800
X214387Y290550
X206031Y298385
X200775Y291957
X182664Y293729
X205952Y318327
X211011Y315776
X195460Y328178
X217704Y339202
X222428Y345107
X217704Y356131
X222428Y370304
X230637Y371150
X240637Y356800
X259387Y356800
X295637Y351800
X311887Y321800
X341387Y328800
X339387Y338050
X346887Y345550
X342887Y349300
X333137Y364300
X258137Y308050
X150462Y282300
X149712Y275550
X147212Y263050
X135962Y273050
X131087Y263175
X106337Y255050
X85962Y283050
X69712Y285550
X62212Y279300
X58462Y284300
X59712Y308050
X32212Y268050
X17212Y269300
X11587Y271800
X15962Y281800
X15962Y290550
X7074Y324241
X32212Y361800
X42212Y356800
X32212Y374300
X52350Y385658
X60962Y356800
X110962Y294300
X58212Y262425
X50962Y258050
X45962Y259925
X39712Y246800
X35962Y234300
X52212Y235550
X53962Y214425
X50337Y206550
X54337Y199800
X63087Y210175
X71962Y205925
X79712Y204300
X95962Y210550
X109712Y210550
X111462Y200800
X104712Y190550
X114712Y181800
X126365Y162430
X140145Y157706
X129712Y133050
X124712Y128050
X118462Y129300
X98462Y126800
X94712Y131800
X90962Y143050
X87212Y153050
X81936Y167774
X90962Y169300
X94712Y183050
X85962Y185550
X65962Y185550
X59712Y181800
X40962Y170550
X55962Y159300
X64712Y145550
X54712Y140550
X43462Y141800
X23212Y115300
X32212Y109300
X29712Y90550
X40962Y84300
X40962Y71800
X49712Y65550
X54712Y31800
X68462Y33050
X79712Y36800
X87212Y25550
X84712Y49300
X90637Y70550
X80962Y103050
X77212Y109300
X63462Y108276
X13462Y105550
X12212Y93050
X13462Y29300
X114712Y107322
X157861Y130146
X40962Y213050
X10962Y236800
X12212Y175550
X15962Y169675
X12212Y165550
T03
X106287Y169113
X106287Y159113
X106287Y149113
X143600Y359088
X143600Y364088
X148600Y364088
X148600Y359088
X148600Y369088
X148600Y374088
X148600Y379088
X143600Y379088
X143600Y374088
X143600Y369088
X304712Y169113
X304712Y159113
X304712Y149113
X342025Y359088
X342025Y364088
X347025Y364088
X347025Y359088
X347025Y369088
X347025Y374088
X347025Y379088
X342025Y379088
X342025Y374088
X342025Y369088
T04
X314761Y413936
X306887Y413936
X299013Y413936
X284761Y413936
X276887Y413936
X269013Y413936
X254761Y413936
X246887Y413936
X239013Y413936
X116336Y413936
X108462Y413936
X100588Y413936
X86336Y413936
X78462Y413936
X70588Y413936
X56336Y413936
X48462Y413936
X40588Y413936
T05
X68619Y339054
X78462Y339054
X88304Y339054
X88304Y270617
X78462Y270617
X68619Y270617
X68619Y192991
X78462Y192991
X88304Y192991
X119869Y192991
X129712Y192991
X139554Y192991
X167546Y200225
X177546Y200225
X187546Y200225
X215794Y192991
X225637Y192991
X235479Y192991
X267044Y192991
X276887Y192991
X286729Y192991
X318294Y192991
X328137Y192991
X337979Y192991
X286729Y270617
X276887Y270617
X267044Y270617
X267044Y339054
X276887Y339054
X286729Y339054
X187546Y273060
X177546Y273060
X167546Y273060
X167546Y236446
X177546Y236446
X187546Y236446
X37054Y192991
X27212Y192991
X17369Y192991
T06
X22212Y9300
X22212Y39300
X22212Y59300
X22212Y89300
X13451Y116800
X22212Y144300
X22212Y174300
X43451Y116800
X59712Y89300
X59712Y59300
X59712Y39300
X59712Y9300
X97212Y9300
X97212Y39300
X97212Y59300
X97212Y89300
X113462Y116800
X134712Y89300
X143462Y116800
X165046Y116761
X177546Y144536
X177546Y174536
X134712Y174300
X134712Y144300
X177546Y88985
X177546Y58985
X177546Y39103
X177546Y9103
X134712Y9300
X134712Y39300
X134712Y59300
X195046Y116761
X211876Y116800
X220637Y89300
X241876Y116800
X258137Y89300
X258137Y59300
X258137Y39300
X258137Y9300
X220637Y9300
X220637Y39300
X220637Y59300
X295637Y59300
X295637Y39300
X295637Y9300
X333137Y9300
X333137Y39300
X333137Y59300
X333137Y89300
X341887Y116800
X333137Y144300
X333137Y174300
X311887Y116800
X295637Y89300
X276887Y144300
X276887Y174300
X220637Y174300
X220637Y144300
X78462Y144300
X78462Y174300
X20337Y336800
X20337Y346800
X20337Y356800
X20337Y366800
X20337Y376800
X10337Y376800
X10337Y366800
X10337Y356800
X10337Y346800
X10337Y336800
T07
X167704Y340776
X177546Y340776
X187389Y340776
X187389Y330776
X187546Y319280
X177546Y319280
X177546Y330776
X167704Y330776
X167546Y319280
X167546Y299280
X177546Y299280
X187546Y299280
T08
X177546Y184536
X134712Y184300
X78462Y184300
X22212Y184300
X53451Y116800
X103462Y116800
X155046Y116761
X134712Y49300
X134712Y49300
X97212Y49300
X97212Y49300
X59712Y49300
X59712Y49300
X22212Y49300
X22212Y49300
X177546Y49103
X177546Y48985
X220637Y49300
X220637Y49300
X258137Y49300
X258137Y49300
X295637Y49300
X295637Y49300
X333137Y49300
X333137Y49300
X301887Y116800
X251876Y116800
X276887Y184300
X220637Y184300
X333137Y184300
T09
X321587Y397900
X321587Y415700
X347187Y415700
X347187Y397900
X232187Y397900
X232187Y415700
X206587Y415700
X206587Y397900
X148762Y397900
X148762Y415700
X123162Y415700
X123162Y397900
X33762Y397900
X33762Y415700
X8162Y415700
X8162Y397900
T10
X59958Y366613
X96966Y366613
X258383Y366613
X295391Y366613
T11
X295391Y298176
X258383Y298176
X258383Y220550
X244141Y220550
X207133Y220550
X148216Y220550
X111208Y220550
X96966Y220550
X59958Y220550
X45716Y220550
X8708Y220550
X59958Y298176
X96966Y298176
X295391Y220550
X309633Y220550
X346641Y220550
T12
X195263Y368335
X159830Y368335
M30
