%
M48
M72
T01C0.01969
T02C0.02362
T03C0.02400
T04C0.02756
T05C0.03937
T06C0.04000
T07C0.04331
T08C0.04724
T09C0.05000
T10C0.05906
T11C0.07480
%
T01
X196032Y402194
T02
X192351Y406524
X184477Y389595
X200619Y385658
X220225Y364300
X226603Y380934
X241564Y358099
X257725Y351800
X241564Y334083
X241475Y321800
X233975Y306800
X229475Y294050
X236475Y280550
X232100Y270675
X238975Y266800
X242725Y270550
X251475Y273050
X264725Y261550
X275850Y253300
X283975Y241800
X285225Y235550
X276475Y231800
X268975Y238050
X251475Y226800
X248350Y238050
X240225Y233050
X237100Y238300
X231350Y224800
X220225Y223050
X215225Y209300
X203375Y212824
X182902Y220698
X172272Y231328
X145550Y236800
X124300Y268050
X139300Y269300
X144925Y271800
X152981Y275816
X140550Y281800
X140550Y290550
X148906Y309999
X138808Y339202
X132509Y345107
X138808Y360855
X132509Y370304
X124300Y371150
X114300Y356800
X95550Y356800
X59300Y351800
X43050Y321800
X35550Y306800
X45550Y294300
X31050Y294050
X38050Y280550
X33675Y270675
X40550Y266800
X44300Y270550
X53050Y273050
X66300Y261550
X77425Y253300
X85550Y241800
X86800Y235550
X78050Y231800
X70550Y238050
X49925Y238050
X53050Y226800
X41800Y233050
X38675Y238300
X32925Y224800
X21800Y223050
X16800Y209300
X41800Y181800
X51800Y190550
X45050Y200800
X46800Y210550
X60550Y210550
X76800Y204300
X84550Y205925
X93425Y210175
X102550Y214425
X106175Y206550
X102175Y199800
X90550Y185550
X96800Y181800
X115550Y170550
X100550Y159300
X99438Y151406
X91800Y145550
X101800Y140550
X109674Y127391
X119349Y144950
X131800Y116800
X124300Y109300
X126800Y90550
X115550Y84300
X115550Y71800
X106800Y65550
X87233Y58887
X71800Y49300
X76800Y36800
X88050Y33050
X101800Y31800
X69300Y25550
X34300Y34550
X11800Y34550
X14300Y65550
X14300Y73050
X41800Y80550
X64300Y70550
X75550Y103050
X79300Y109300
X93050Y108276
X65550Y143050
X69300Y153050
X79300Y163050
X65550Y169300
X61800Y183050
X70550Y185550
X104300Y235550
X116800Y246800
X120550Y234300
X115550Y213050
X144300Y175550
X144300Y165550
X152981Y156131
X149300Y146032
X160855Y141957
X149831Y127784
X143050Y105550
X144300Y93050
X156131Y96288
X157706Y82115
X146682Y74241
X145894Y66367
X145894Y58099
X162430Y55343
X142745Y31721
X144625Y26150
X157706Y26997
X190776Y31721
X210225Y34550
X232725Y34550
X212725Y65550
X212725Y73050
X203375Y64792
X184477Y64792
X197076Y130146
X214792Y157706
X228572Y162430
X240225Y181800
X250225Y190550
X243475Y200800
X245225Y210550
X258975Y210550
X275225Y204300
X282975Y205925
X291850Y210175
X300975Y214425
X304600Y206550
X300600Y199800
X288975Y185550
X295225Y181800
X313975Y170550
X298975Y159300
X290225Y145550
X300225Y140550
X311475Y141800
X330225Y116800
X322725Y109300
X325225Y90550
X313975Y84300
X313975Y71800
X305225Y65550
X300225Y31800
X286475Y33050
X275225Y36800
X270225Y49300
X262725Y70550
X273975Y103050
X277725Y109300
X291475Y108276
X263975Y143050
X267725Y153050
X277725Y163050
X263975Y169300
X260225Y183050
X268975Y185550
X302725Y235550
X315225Y246800
X318975Y234300
X313975Y213050
X343975Y236800
X322725Y268050
X308975Y259925
X303975Y258050
X296725Y262425
X292725Y279300
X296475Y284300
X285225Y285550
X268975Y283050
X243975Y294300
X218975Y273050
X223850Y263175
X207725Y263050
X205225Y275550
X204475Y282300
X211975Y328800
X213975Y338050
X206475Y345550
X210475Y349300
X197076Y351406
X248600Y255050
X295225Y308050
X293975Y356800
X312725Y356800
X322725Y361800
X322725Y374300
X302587Y385658
X347863Y324241
X338975Y290550
X338975Y281800
X343350Y271800
X337725Y269300
X342725Y175550
X338975Y169675
X342725Y165550
X341475Y105550
X342725Y93050
X341475Y29300
X267725Y25550
X240225Y107322
X236475Y129300
X230225Y128050
X225225Y133050
X256475Y126800
X260225Y131800
X160855Y193926
X110550Y259925
X105550Y258050
X98300Y262425
X94300Y279300
X98050Y284300
X86800Y285550
X70550Y283050
X50175Y255050
X25425Y263175
X20550Y273050
X9300Y263050
X6800Y275550
X6050Y282300
X13550Y328800
X15550Y338050
X8050Y345550
X12050Y349300
X21800Y364300
X96800Y308050
X26800Y133050
X31800Y128050
X38050Y129300
X22459Y116800
X61800Y131800
T03
X50225Y149113
X50225Y159113
X50225Y169113
X12912Y359088
X7912Y359088
X7912Y364088
X12912Y364088
X12912Y369088
X7912Y369088
X7912Y374088
X12912Y374088
X12912Y379088
X7912Y379088
X206337Y379088
X206337Y374088
X206337Y369088
X206337Y364088
X206337Y359088
X211337Y359088
X211337Y364088
X211337Y369088
X211337Y374088
X211337Y379088
X248650Y169113
X248650Y159113
X248650Y149113
T04
X246475Y413936
X238601Y413936
X254349Y413936
X268601Y413936
X276475Y413936
X284349Y413936
X298601Y413936
X306475Y413936
X314349Y413936
X115924Y413936
X108050Y413936
X100176Y413936
X85924Y413936
X78050Y413936
X70176Y413936
X55924Y413936
X48050Y413936
X40176Y413936
T05
X68207Y339054
X78050Y339054
X87893Y339054
X87893Y270617
X78050Y270617
X68207Y270617
X68207Y192991
X78050Y192991
X87893Y192991
X119457Y192991
X129300Y192991
X139143Y192991
X167391Y200225
X177391Y200225
X187391Y200225
X215383Y192991
X225225Y192991
X235068Y192991
X266633Y192991
X276475Y192991
X286318Y192991
X317883Y192991
X327725Y192991
X337568Y192991
X286318Y270617
X276475Y270617
X266633Y270617
X266633Y339054
X276475Y339054
X286318Y339054
X187233Y339202
X177391Y339202
X167548Y339202
X167391Y236446
X177391Y236446
X187391Y236446
X36643Y192991
X26800Y192991
X16957Y192991
T06
X21800Y9300
X21800Y39300
X21800Y59300
X21800Y89300
X13050Y116800
X21800Y144300
X43050Y116800
X59300Y89300
X59300Y59300
X59300Y39300
X59300Y9300
X96800Y9300
X96800Y39300
X96800Y59300
X96800Y89300
X113061Y116800
X134300Y144300
X143061Y116800
X159891Y116761
X177391Y144536
X189891Y116761
X211475Y116800
X220225Y144300
X241475Y116800
X257725Y89300
X257725Y59300
X257725Y39300
X257725Y9300
X220225Y9300
X220225Y39300
X220225Y59300
X220225Y89300
X177391Y88985
X177391Y58985
X177391Y39103
X177391Y9103
X134300Y9300
X134300Y39300
X134300Y59300
X134300Y89300
X78050Y144300
X78050Y174300
X21800Y174300
X134300Y174300
X177391Y174536
X220225Y174300
X276475Y174300
X276475Y144300
X311486Y116800
X332725Y144300
X341486Y116800
X332725Y89300
X332725Y59300
X332725Y39300
X332725Y9300
X295225Y9300
X295225Y39300
X295225Y59300
X295225Y89300
X332725Y174300
X334600Y336800
X334600Y346800
X334600Y356800
X334600Y366800
X334600Y376800
X344600Y376800
X344600Y366800
X344600Y356800
X344600Y346800
X344600Y336800
T07
X187391Y319280
X177391Y319280
X167391Y319280
X167391Y299280
X177391Y299280
X187391Y299280
X187391Y283060
X177391Y283060
X167391Y283060
X167391Y263060
X177391Y263060
X187391Y263060
T08
X177391Y184536
X134300Y184300
X78050Y184300
X21800Y184300
X53050Y116800
X103061Y116800
X96800Y49300
X96800Y49300
X134300Y49300
X134300Y49300
X177391Y49103
X177391Y48985
X220225Y49300
X220225Y49300
X257725Y49300
X257725Y49300
X295225Y49300
X295225Y49300
X332725Y49300
X332725Y49300
X301486Y116800
X251475Y116800
X199891Y116761
X220225Y184300
X276475Y184300
X332725Y184300
X59300Y49300
X59300Y49300
X21800Y49300
X21800Y49300
T09
X33350Y397900
X33350Y415700
X7750Y415700
X7750Y397900
X122750Y397900
X122750Y415700
X148350Y415700
X148350Y397900
X206175Y397900
X206175Y415700
X231775Y415700
X231775Y397900
X321175Y397900
X321175Y415700
X346775Y415700
X346775Y397900
T10
X294979Y366613
X257971Y366613
X195894Y366761
X158887Y366761
X96554Y366613
X59546Y366613
T11
X59546Y298176
X96554Y298176
X96554Y220550
X110796Y220550
X147804Y220550
X206721Y220550
X243729Y220550
X257971Y220550
X294979Y220550
X309221Y220550
X346229Y220550
X294979Y298176
X257971Y298176
X59546Y220550
X45304Y220550
X8296Y220550
M30
