G75*
%MOIN*%
%OFA0B0*%
%FSLAX25Y25*%
%IPPOS*%
%LPD*%
%AMOC8*
5,1,8,0,0,1.08239X$1,22.5*
%
%ADD10R,0.01000X0.03937*%
%ADD11R,0.03937X0.01000*%
%ADD12R,0.21000X0.07600*%
%ADD13R,0.04331X0.03937*%
%ADD14R,0.01200X0.03900*%
%ADD15R,0.03937X0.04331*%
%ADD16R,0.02362X0.08661*%
%ADD17R,0.03937X0.05512*%
%ADD18R,0.02756X0.03937*%
%ADD19R,0.05512X0.10236*%
%ADD20R,0.07900X0.05900*%
%ADD21R,0.07900X0.15000*%
%ADD22R,0.05900X0.07900*%
%ADD23R,0.15000X0.07900*%
%ADD24R,0.01614X0.04016*%
%ADD25R,0.01378X0.03543*%
%ADD26R,0.05906X0.05118*%
%ADD27R,0.05512X0.11811*%
%ADD28R,0.05512X0.05512*%
D10*
G36*
X0026199Y0251743D02*
X0025492Y0252450D01*
X0028275Y0255233D01*
X0028982Y0254526D01*
X0026199Y0251743D01*
G37*
G36*
X0024807Y0253135D02*
X0024100Y0253842D01*
X0026883Y0256625D01*
X0027590Y0255918D01*
X0024807Y0253135D01*
G37*
G36*
X0023415Y0254527D02*
X0022708Y0255234D01*
X0025491Y0258017D01*
X0026198Y0257310D01*
X0023415Y0254527D01*
G37*
G36*
X0022023Y0255919D02*
X0021316Y0256626D01*
X0024099Y0259409D01*
X0024806Y0258702D01*
X0022023Y0255919D01*
G37*
G36*
X0020631Y0257311D02*
X0019924Y0258018D01*
X0022707Y0260801D01*
X0023414Y0260094D01*
X0020631Y0257311D01*
G37*
G36*
X0019239Y0258703D02*
X0018532Y0259410D01*
X0021315Y0262193D01*
X0022022Y0261486D01*
X0019239Y0258703D01*
G37*
G36*
X0017847Y0260094D02*
X0017140Y0260801D01*
X0019923Y0263584D01*
X0020630Y0262877D01*
X0017847Y0260094D01*
G37*
G36*
X0016455Y0261486D02*
X0015748Y0262193D01*
X0018531Y0264976D01*
X0019238Y0264269D01*
X0016455Y0261486D01*
G37*
G36*
X0015063Y0262878D02*
X0014356Y0263585D01*
X0017139Y0266368D01*
X0017846Y0265661D01*
X0015063Y0262878D01*
G37*
G36*
X0013671Y0264270D02*
X0012964Y0264977D01*
X0015747Y0267760D01*
X0016454Y0267053D01*
X0013671Y0264270D01*
G37*
G36*
X0012279Y0265662D02*
X0011572Y0266369D01*
X0014355Y0269152D01*
X0015062Y0268445D01*
X0012279Y0265662D01*
G37*
G36*
X0010887Y0267054D02*
X0010180Y0267761D01*
X0012963Y0270544D01*
X0013670Y0269837D01*
X0010887Y0267054D01*
G37*
G36*
X0034550Y0290717D02*
X0033843Y0291424D01*
X0036626Y0294207D01*
X0037333Y0293500D01*
X0034550Y0290717D01*
G37*
G36*
X0035942Y0289325D02*
X0035235Y0290032D01*
X0038018Y0292815D01*
X0038725Y0292108D01*
X0035942Y0289325D01*
G37*
G36*
X0037334Y0287933D02*
X0036627Y0288640D01*
X0039410Y0291423D01*
X0040117Y0290716D01*
X0037334Y0287933D01*
G37*
G36*
X0038726Y0286541D02*
X0038019Y0287248D01*
X0040802Y0290031D01*
X0041509Y0289324D01*
X0038726Y0286541D01*
G37*
G36*
X0040118Y0285149D02*
X0039411Y0285856D01*
X0042194Y0288639D01*
X0042901Y0287932D01*
X0040118Y0285149D01*
G37*
G36*
X0041510Y0283757D02*
X0040803Y0284464D01*
X0043586Y0287247D01*
X0044293Y0286540D01*
X0041510Y0283757D01*
G37*
G36*
X0042902Y0282366D02*
X0042195Y0283073D01*
X0044978Y0285856D01*
X0045685Y0285149D01*
X0042902Y0282366D01*
G37*
G36*
X0044294Y0280974D02*
X0043587Y0281681D01*
X0046370Y0284464D01*
X0047077Y0283757D01*
X0044294Y0280974D01*
G37*
G36*
X0045686Y0279582D02*
X0044979Y0280289D01*
X0047762Y0283072D01*
X0048469Y0282365D01*
X0045686Y0279582D01*
G37*
G36*
X0047078Y0278190D02*
X0046371Y0278897D01*
X0049154Y0281680D01*
X0049861Y0280973D01*
X0047078Y0278190D01*
G37*
G36*
X0048470Y0276798D02*
X0047763Y0277505D01*
X0050546Y0280288D01*
X0051253Y0279581D01*
X0048470Y0276798D01*
G37*
G36*
X0049862Y0275406D02*
X0049155Y0276113D01*
X0051938Y0278896D01*
X0052645Y0278189D01*
X0049862Y0275406D01*
G37*
G36*
X0209313Y0267054D02*
X0208606Y0267761D01*
X0211389Y0270544D01*
X0212096Y0269837D01*
X0209313Y0267054D01*
G37*
G36*
X0210704Y0265662D02*
X0209997Y0266369D01*
X0212780Y0269152D01*
X0213487Y0268445D01*
X0210704Y0265662D01*
G37*
G36*
X0212096Y0264270D02*
X0211389Y0264977D01*
X0214172Y0267760D01*
X0214879Y0267053D01*
X0212096Y0264270D01*
G37*
G36*
X0213488Y0262878D02*
X0212781Y0263585D01*
X0215564Y0266368D01*
X0216271Y0265661D01*
X0213488Y0262878D01*
G37*
G36*
X0214880Y0261486D02*
X0214173Y0262193D01*
X0216956Y0264976D01*
X0217663Y0264269D01*
X0214880Y0261486D01*
G37*
G36*
X0216272Y0260094D02*
X0215565Y0260801D01*
X0218348Y0263584D01*
X0219055Y0262877D01*
X0216272Y0260094D01*
G37*
G36*
X0217664Y0258703D02*
X0216957Y0259410D01*
X0219740Y0262193D01*
X0220447Y0261486D01*
X0217664Y0258703D01*
G37*
G36*
X0219056Y0257311D02*
X0218349Y0258018D01*
X0221132Y0260801D01*
X0221839Y0260094D01*
X0219056Y0257311D01*
G37*
G36*
X0220448Y0255919D02*
X0219741Y0256626D01*
X0222524Y0259409D01*
X0223231Y0258702D01*
X0220448Y0255919D01*
G37*
G36*
X0221840Y0254527D02*
X0221133Y0255234D01*
X0223916Y0258017D01*
X0224623Y0257310D01*
X0221840Y0254527D01*
G37*
G36*
X0223232Y0253135D02*
X0222525Y0253842D01*
X0225308Y0256625D01*
X0226015Y0255918D01*
X0223232Y0253135D01*
G37*
G36*
X0224624Y0251743D02*
X0223917Y0252450D01*
X0226700Y0255233D01*
X0227407Y0254526D01*
X0224624Y0251743D01*
G37*
G36*
X0246895Y0276798D02*
X0246188Y0277505D01*
X0248971Y0280288D01*
X0249678Y0279581D01*
X0246895Y0276798D01*
G37*
G36*
X0248287Y0275406D02*
X0247580Y0276113D01*
X0250363Y0278896D01*
X0251070Y0278189D01*
X0248287Y0275406D01*
G37*
G36*
X0245503Y0278190D02*
X0244796Y0278897D01*
X0247579Y0281680D01*
X0248286Y0280973D01*
X0245503Y0278190D01*
G37*
G36*
X0244111Y0279582D02*
X0243404Y0280289D01*
X0246187Y0283072D01*
X0246894Y0282365D01*
X0244111Y0279582D01*
G37*
G36*
X0242719Y0280974D02*
X0242012Y0281681D01*
X0244795Y0284464D01*
X0245502Y0283757D01*
X0242719Y0280974D01*
G37*
G36*
X0241327Y0282366D02*
X0240620Y0283073D01*
X0243403Y0285856D01*
X0244110Y0285149D01*
X0241327Y0282366D01*
G37*
G36*
X0239935Y0283757D02*
X0239228Y0284464D01*
X0242011Y0287247D01*
X0242718Y0286540D01*
X0239935Y0283757D01*
G37*
G36*
X0238543Y0285149D02*
X0237836Y0285856D01*
X0240619Y0288639D01*
X0241326Y0287932D01*
X0238543Y0285149D01*
G37*
G36*
X0237151Y0286541D02*
X0236444Y0287248D01*
X0239227Y0290031D01*
X0239934Y0289324D01*
X0237151Y0286541D01*
G37*
G36*
X0235759Y0287933D02*
X0235052Y0288640D01*
X0237835Y0291423D01*
X0238542Y0290716D01*
X0235759Y0287933D01*
G37*
G36*
X0234367Y0289325D02*
X0233660Y0290032D01*
X0236443Y0292815D01*
X0237150Y0292108D01*
X0234367Y0289325D01*
G37*
G36*
X0232976Y0290717D02*
X0232269Y0291424D01*
X0235052Y0294207D01*
X0235759Y0293500D01*
X0232976Y0290717D01*
G37*
D11*
G36*
X0226700Y0290717D02*
X0223917Y0293500D01*
X0224624Y0294207D01*
X0227407Y0291424D01*
X0226700Y0290717D01*
G37*
G36*
X0225308Y0289325D02*
X0222525Y0292108D01*
X0223232Y0292815D01*
X0226015Y0290032D01*
X0225308Y0289325D01*
G37*
G36*
X0223916Y0287933D02*
X0221133Y0290716D01*
X0221840Y0291423D01*
X0224623Y0288640D01*
X0223916Y0287933D01*
G37*
G36*
X0222524Y0286541D02*
X0219741Y0289324D01*
X0220448Y0290031D01*
X0223231Y0287248D01*
X0222524Y0286541D01*
G37*
G36*
X0221132Y0285149D02*
X0218349Y0287932D01*
X0219056Y0288639D01*
X0221839Y0285856D01*
X0221132Y0285149D01*
G37*
G36*
X0219740Y0283757D02*
X0216957Y0286540D01*
X0217664Y0287247D01*
X0220447Y0284464D01*
X0219740Y0283757D01*
G37*
G36*
X0218348Y0282366D02*
X0215565Y0285149D01*
X0216272Y0285856D01*
X0219055Y0283073D01*
X0218348Y0282366D01*
G37*
G36*
X0216956Y0280974D02*
X0214173Y0283757D01*
X0214880Y0284464D01*
X0217663Y0281681D01*
X0216956Y0280974D01*
G37*
G36*
X0215564Y0279582D02*
X0212781Y0282365D01*
X0213488Y0283072D01*
X0216271Y0280289D01*
X0215564Y0279582D01*
G37*
G36*
X0214172Y0278190D02*
X0211389Y0280973D01*
X0212096Y0281680D01*
X0214879Y0278897D01*
X0214172Y0278190D01*
G37*
G36*
X0212780Y0276798D02*
X0209997Y0279581D01*
X0210704Y0280288D01*
X0213487Y0277505D01*
X0212780Y0276798D01*
G37*
G36*
X0211389Y0275406D02*
X0208606Y0278189D01*
X0209313Y0278896D01*
X0212096Y0276113D01*
X0211389Y0275406D01*
G37*
G36*
X0235052Y0251743D02*
X0232269Y0254526D01*
X0232976Y0255233D01*
X0235759Y0252450D01*
X0235052Y0251743D01*
G37*
G36*
X0236443Y0253135D02*
X0233660Y0255918D01*
X0234367Y0256625D01*
X0237150Y0253842D01*
X0236443Y0253135D01*
G37*
G36*
X0237835Y0254527D02*
X0235052Y0257310D01*
X0235759Y0258017D01*
X0238542Y0255234D01*
X0237835Y0254527D01*
G37*
G36*
X0239227Y0255919D02*
X0236444Y0258702D01*
X0237151Y0259409D01*
X0239934Y0256626D01*
X0239227Y0255919D01*
G37*
G36*
X0240619Y0257311D02*
X0237836Y0260094D01*
X0238543Y0260801D01*
X0241326Y0258018D01*
X0240619Y0257311D01*
G37*
G36*
X0242011Y0258703D02*
X0239228Y0261486D01*
X0239935Y0262193D01*
X0242718Y0259410D01*
X0242011Y0258703D01*
G37*
G36*
X0243403Y0260094D02*
X0240620Y0262877D01*
X0241327Y0263584D01*
X0244110Y0260801D01*
X0243403Y0260094D01*
G37*
G36*
X0244795Y0261486D02*
X0242012Y0264269D01*
X0242719Y0264976D01*
X0245502Y0262193D01*
X0244795Y0261486D01*
G37*
G36*
X0246187Y0262878D02*
X0243404Y0265661D01*
X0244111Y0266368D01*
X0246894Y0263585D01*
X0246187Y0262878D01*
G37*
G36*
X0247579Y0264270D02*
X0244796Y0267053D01*
X0245503Y0267760D01*
X0248286Y0264977D01*
X0247579Y0264270D01*
G37*
G36*
X0248971Y0265662D02*
X0246188Y0268445D01*
X0246895Y0269152D01*
X0249678Y0266369D01*
X0248971Y0265662D01*
G37*
G36*
X0250363Y0267054D02*
X0247580Y0269837D01*
X0248287Y0270544D01*
X0251070Y0267761D01*
X0250363Y0267054D01*
G37*
G36*
X0051938Y0267054D02*
X0049155Y0269837D01*
X0049862Y0270544D01*
X0052645Y0267761D01*
X0051938Y0267054D01*
G37*
G36*
X0050546Y0265662D02*
X0047763Y0268445D01*
X0048470Y0269152D01*
X0051253Y0266369D01*
X0050546Y0265662D01*
G37*
G36*
X0049154Y0264270D02*
X0046371Y0267053D01*
X0047078Y0267760D01*
X0049861Y0264977D01*
X0049154Y0264270D01*
G37*
G36*
X0047762Y0262878D02*
X0044979Y0265661D01*
X0045686Y0266368D01*
X0048469Y0263585D01*
X0047762Y0262878D01*
G37*
G36*
X0046370Y0261486D02*
X0043587Y0264269D01*
X0044294Y0264976D01*
X0047077Y0262193D01*
X0046370Y0261486D01*
G37*
G36*
X0044978Y0260094D02*
X0042195Y0262877D01*
X0042902Y0263584D01*
X0045685Y0260801D01*
X0044978Y0260094D01*
G37*
G36*
X0043586Y0258703D02*
X0040803Y0261486D01*
X0041510Y0262193D01*
X0044293Y0259410D01*
X0043586Y0258703D01*
G37*
G36*
X0042194Y0257311D02*
X0039411Y0260094D01*
X0040118Y0260801D01*
X0042901Y0258018D01*
X0042194Y0257311D01*
G37*
G36*
X0040802Y0255919D02*
X0038019Y0258702D01*
X0038726Y0259409D01*
X0041509Y0256626D01*
X0040802Y0255919D01*
G37*
G36*
X0039410Y0254527D02*
X0036627Y0257310D01*
X0037334Y0258017D01*
X0040117Y0255234D01*
X0039410Y0254527D01*
G37*
G36*
X0038018Y0253135D02*
X0035235Y0255918D01*
X0035942Y0256625D01*
X0038725Y0253842D01*
X0038018Y0253135D01*
G37*
G36*
X0036626Y0251743D02*
X0033843Y0254526D01*
X0034550Y0255233D01*
X0037333Y0252450D01*
X0036626Y0251743D01*
G37*
G36*
X0015747Y0278190D02*
X0012964Y0280973D01*
X0013671Y0281680D01*
X0016454Y0278897D01*
X0015747Y0278190D01*
G37*
G36*
X0014355Y0276798D02*
X0011572Y0279581D01*
X0012279Y0280288D01*
X0015062Y0277505D01*
X0014355Y0276798D01*
G37*
G36*
X0012963Y0275406D02*
X0010180Y0278189D01*
X0010887Y0278896D01*
X0013670Y0276113D01*
X0012963Y0275406D01*
G37*
G36*
X0017139Y0279582D02*
X0014356Y0282365D01*
X0015063Y0283072D01*
X0017846Y0280289D01*
X0017139Y0279582D01*
G37*
G36*
X0018531Y0280974D02*
X0015748Y0283757D01*
X0016455Y0284464D01*
X0019238Y0281681D01*
X0018531Y0280974D01*
G37*
G36*
X0019923Y0282366D02*
X0017140Y0285149D01*
X0017847Y0285856D01*
X0020630Y0283073D01*
X0019923Y0282366D01*
G37*
G36*
X0021315Y0283757D02*
X0018532Y0286540D01*
X0019239Y0287247D01*
X0022022Y0284464D01*
X0021315Y0283757D01*
G37*
G36*
X0022707Y0285149D02*
X0019924Y0287932D01*
X0020631Y0288639D01*
X0023414Y0285856D01*
X0022707Y0285149D01*
G37*
G36*
X0024099Y0286541D02*
X0021316Y0289324D01*
X0022023Y0290031D01*
X0024806Y0287248D01*
X0024099Y0286541D01*
G37*
G36*
X0025491Y0287933D02*
X0022708Y0290716D01*
X0023415Y0291423D01*
X0026198Y0288640D01*
X0025491Y0287933D01*
G37*
G36*
X0026883Y0289325D02*
X0024100Y0292108D01*
X0024807Y0292815D01*
X0027590Y0290032D01*
X0026883Y0289325D01*
G37*
G36*
X0028275Y0290717D02*
X0025492Y0293500D01*
X0026199Y0294207D01*
X0028982Y0291424D01*
X0028275Y0290717D01*
G37*
D12*
X0037394Y0314710D03*
X0075394Y0314710D03*
X0235819Y0314710D03*
X0273819Y0314710D03*
D13*
X0255668Y0328060D03*
X0248975Y0328060D03*
X0241451Y0327981D03*
X0234758Y0327981D03*
X0232504Y0299300D03*
X0239197Y0299300D03*
X0224822Y0299300D03*
X0218129Y0299300D03*
X0256879Y0288488D03*
X0256879Y0282051D03*
X0263572Y0282051D03*
X0263572Y0288488D03*
X0258975Y0260146D03*
X0258975Y0253454D03*
X0255629Y0247425D03*
X0262322Y0247425D03*
X0270225Y0253454D03*
X0270225Y0260146D03*
X0281475Y0260146D03*
X0281475Y0253454D03*
X0297725Y0252646D03*
X0297725Y0245954D03*
X0305225Y0245954D03*
X0305225Y0252646D03*
X0297322Y0231800D03*
X0290629Y0231800D03*
X0279725Y0217646D03*
X0273225Y0217646D03*
X0266475Y0217646D03*
X0266475Y0210954D03*
X0273225Y0210954D03*
X0279725Y0210954D03*
X0295225Y0197646D03*
X0295225Y0190954D03*
X0300629Y0171800D03*
X0307322Y0171800D03*
X0328975Y0208454D03*
X0328975Y0215146D03*
X0337725Y0210146D03*
X0337725Y0203454D03*
X0346475Y0196396D03*
X0346475Y0189704D03*
X0342725Y0255954D03*
X0342725Y0262646D03*
X0335225Y0262646D03*
X0335225Y0255954D03*
X0326475Y0255954D03*
X0326475Y0262646D03*
X0262322Y0231800D03*
X0255629Y0231800D03*
X0235447Y0246800D03*
X0228754Y0246800D03*
X0228129Y0209605D03*
X0228129Y0203355D03*
X0221436Y0203355D03*
X0221436Y0209605D03*
X0248129Y0196800D03*
X0254822Y0196800D03*
X0267725Y0133896D03*
X0267725Y0127204D03*
X0266475Y0120146D03*
X0266475Y0113454D03*
X0276475Y0127204D03*
X0276475Y0133896D03*
X0285225Y0133896D03*
X0285225Y0127204D03*
X0313975Y0103896D03*
X0313975Y0097204D03*
X0322725Y0097204D03*
X0322725Y0103896D03*
X0285225Y0090146D03*
X0285225Y0083454D03*
X0313975Y0058896D03*
X0313975Y0052204D03*
X0322725Y0052204D03*
X0322725Y0058896D03*
X0315225Y0026396D03*
X0308975Y0026396D03*
X0308975Y0019704D03*
X0315225Y0019704D03*
X0297725Y0019704D03*
X0291475Y0019704D03*
X0285225Y0019704D03*
X0285225Y0026396D03*
X0291475Y0026396D03*
X0297725Y0026396D03*
X0261475Y0026396D03*
X0261475Y0019704D03*
X0245225Y0039704D03*
X0245225Y0046396D03*
X0238975Y0046396D03*
X0238975Y0039704D03*
X0232725Y0039704D03*
X0232725Y0046396D03*
X0240225Y0026396D03*
X0240225Y0019704D03*
X0220225Y0019704D03*
X0220225Y0026396D03*
X0187617Y0089182D03*
X0187617Y0095875D03*
X0165589Y0123591D03*
X0165589Y0130284D03*
X0124300Y0103896D03*
X0124300Y0097204D03*
X0115550Y0097204D03*
X0115550Y0103896D03*
X0086800Y0090146D03*
X0086800Y0083454D03*
X0068050Y0113454D03*
X0068050Y0120146D03*
X0069300Y0127204D03*
X0069300Y0133896D03*
X0078050Y0133896D03*
X0078050Y0127204D03*
X0086800Y0127204D03*
X0086800Y0133896D03*
X0102204Y0171800D03*
X0108896Y0171800D03*
X0096800Y0190954D03*
X0096800Y0197646D03*
X0081300Y0210954D03*
X0074800Y0210954D03*
X0074800Y0217646D03*
X0081300Y0217646D03*
X0068050Y0217646D03*
X0068050Y0210954D03*
X0056396Y0196800D03*
X0049704Y0196800D03*
X0029704Y0203355D03*
X0029704Y0209605D03*
X0023011Y0209605D03*
X0023011Y0203355D03*
X0030329Y0246800D03*
X0037021Y0246800D03*
X0057204Y0247425D03*
X0060550Y0253454D03*
X0060550Y0260146D03*
X0063896Y0247425D03*
X0071800Y0253454D03*
X0071800Y0260146D03*
X0083050Y0260146D03*
X0083050Y0253454D03*
X0099300Y0252646D03*
X0099300Y0245954D03*
X0106800Y0245954D03*
X0106800Y0252646D03*
X0098896Y0231800D03*
X0092204Y0231800D03*
X0063896Y0231800D03*
X0057204Y0231800D03*
X0058454Y0282051D03*
X0058454Y0288488D03*
X0065146Y0288488D03*
X0065146Y0282051D03*
X0040771Y0299300D03*
X0034079Y0299300D03*
X0026396Y0299300D03*
X0019704Y0299300D03*
X0036332Y0327981D03*
X0043025Y0327981D03*
X0050550Y0328060D03*
X0057243Y0328060D03*
X0092204Y0380550D03*
X0098896Y0380550D03*
X0100550Y0397204D03*
X0100550Y0403896D03*
X0113050Y0403896D03*
X0113050Y0397204D03*
X0085550Y0397204D03*
X0085550Y0403896D03*
X0070550Y0403896D03*
X0070550Y0397204D03*
X0055550Y0397204D03*
X0055550Y0403896D03*
X0043050Y0403896D03*
X0043050Y0397204D03*
X0128050Y0262646D03*
X0128050Y0255954D03*
X0136800Y0255954D03*
X0136800Y0262646D03*
X0144300Y0262646D03*
X0144300Y0255954D03*
X0130550Y0215146D03*
X0130550Y0208454D03*
X0139300Y0210146D03*
X0139300Y0203454D03*
X0148050Y0196396D03*
X0148050Y0189704D03*
X0124300Y0058896D03*
X0124300Y0052204D03*
X0115550Y0052204D03*
X0115550Y0058896D03*
X0116800Y0026396D03*
X0110550Y0026396D03*
X0110550Y0019704D03*
X0116800Y0019704D03*
X0099300Y0019704D03*
X0093050Y0019704D03*
X0086800Y0019704D03*
X0086800Y0026396D03*
X0093050Y0026396D03*
X0099300Y0026396D03*
X0063050Y0026396D03*
X0063050Y0019704D03*
X0046800Y0039704D03*
X0046800Y0046396D03*
X0040550Y0046396D03*
X0040550Y0039704D03*
X0034300Y0039704D03*
X0034300Y0046396D03*
X0041800Y0026396D03*
X0041800Y0019704D03*
X0021800Y0019704D03*
X0021800Y0026396D03*
X0136800Y0026396D03*
X0136800Y0019704D03*
X0335225Y0019704D03*
X0335225Y0026396D03*
X0183011Y0349438D03*
X0183011Y0356131D03*
X0173011Y0356131D03*
X0173011Y0349438D03*
X0174261Y0409438D03*
X0174261Y0416131D03*
X0184261Y0416131D03*
X0184261Y0409438D03*
X0241475Y0403896D03*
X0241475Y0397204D03*
X0253975Y0397204D03*
X0253975Y0403896D03*
X0268975Y0403896D03*
X0268975Y0397204D03*
X0283975Y0397204D03*
X0283975Y0403896D03*
X0298975Y0403896D03*
X0298975Y0397204D03*
X0311475Y0397204D03*
X0311475Y0403896D03*
X0297322Y0380550D03*
X0290629Y0380550D03*
D14*
X0283975Y0246880D03*
X0281475Y0246880D03*
X0278975Y0246880D03*
X0276475Y0246880D03*
X0273975Y0246880D03*
X0271475Y0246880D03*
X0268975Y0246880D03*
X0268975Y0225480D03*
X0271475Y0225480D03*
X0273975Y0225480D03*
X0276475Y0225480D03*
X0278975Y0225480D03*
X0281475Y0225480D03*
X0283975Y0225480D03*
X0085550Y0225480D03*
X0083050Y0225480D03*
X0080550Y0225480D03*
X0078050Y0225480D03*
X0075550Y0225480D03*
X0073050Y0225480D03*
X0070550Y0225480D03*
X0070550Y0246880D03*
X0073050Y0246880D03*
X0075550Y0246880D03*
X0078050Y0246880D03*
X0080550Y0246880D03*
X0083050Y0246880D03*
X0085550Y0246880D03*
D15*
X0091800Y0245954D03*
X0092204Y0239300D03*
X0098896Y0239300D03*
X0091800Y0252646D03*
X0114461Y0238533D03*
X0114461Y0231841D03*
X0121800Y0215146D03*
X0121800Y0208454D03*
X0088896Y0200550D03*
X0082204Y0200550D03*
X0088050Y0210954D03*
X0088050Y0217646D03*
X0070146Y0203050D03*
X0063454Y0203050D03*
X0055776Y0183050D03*
X0049083Y0183050D03*
X0057204Y0238670D03*
X0063896Y0238670D03*
X0120550Y0255954D03*
X0120550Y0262646D03*
X0097381Y0313660D03*
X0097381Y0320353D03*
X0100146Y0329300D03*
X0093454Y0329300D03*
X0189467Y0376150D03*
X0189467Y0382843D03*
X0192617Y0390747D03*
X0192617Y0397440D03*
X0291879Y0329300D03*
X0298572Y0329300D03*
X0295806Y0320353D03*
X0295806Y0313660D03*
X0318975Y0262646D03*
X0318975Y0255954D03*
X0312886Y0238533D03*
X0312886Y0231841D03*
X0320225Y0215146D03*
X0320225Y0208454D03*
X0297322Y0239300D03*
X0290629Y0239300D03*
X0290225Y0245954D03*
X0290225Y0252646D03*
X0262322Y0238670D03*
X0255629Y0238670D03*
X0261879Y0203050D03*
X0268572Y0203050D03*
X0280629Y0200550D03*
X0287322Y0200550D03*
X0286475Y0210954D03*
X0286475Y0217646D03*
X0254202Y0183050D03*
X0247509Y0183050D03*
X0286475Y0120146D03*
X0286475Y0113454D03*
X0286475Y0103276D03*
X0286475Y0096583D03*
X0276475Y0090146D03*
X0276475Y0083454D03*
X0269822Y0080550D03*
X0263129Y0080550D03*
X0266475Y0097204D03*
X0266475Y0103896D03*
X0305225Y0103896D03*
X0305225Y0097204D03*
X0305225Y0081396D03*
X0305225Y0074704D03*
X0305225Y0058896D03*
X0305225Y0052204D03*
X0316879Y0044300D03*
X0323572Y0044300D03*
X0325225Y0075954D03*
X0325225Y0082646D03*
X0307322Y0165550D03*
X0300629Y0165550D03*
X0126800Y0082646D03*
X0126800Y0075954D03*
X0106800Y0074704D03*
X0106800Y0081396D03*
X0106800Y0097204D03*
X0106800Y0103896D03*
X0088050Y0103276D03*
X0088050Y0096583D03*
X0078050Y0090146D03*
X0078050Y0083454D03*
X0071396Y0080550D03*
X0064704Y0080550D03*
X0068050Y0097204D03*
X0068050Y0103896D03*
X0088050Y0113454D03*
X0088050Y0120146D03*
X0102204Y0165550D03*
X0108896Y0165550D03*
X0106800Y0058896D03*
X0106800Y0052204D03*
X0118454Y0044300D03*
X0125146Y0044300D03*
D16*
X0126800Y0225314D03*
X0121800Y0225314D03*
X0131800Y0225314D03*
X0136800Y0225314D03*
X0136800Y0245786D03*
X0131800Y0245786D03*
X0126800Y0245786D03*
X0121800Y0245786D03*
X0320225Y0245786D03*
X0325225Y0245786D03*
X0330225Y0245786D03*
X0335225Y0245786D03*
X0335225Y0225314D03*
X0330225Y0225314D03*
X0325225Y0225314D03*
X0320225Y0225314D03*
D17*
X0008060Y0019969D03*
X0015540Y0019969D03*
X0011800Y0028631D03*
X0028060Y0019969D03*
X0031800Y0028631D03*
X0035540Y0019969D03*
X0048060Y0019969D03*
X0055540Y0019969D03*
X0051800Y0028631D03*
X0073060Y0019969D03*
X0080540Y0019969D03*
X0076800Y0028631D03*
X0123060Y0019969D03*
X0130540Y0019969D03*
X0126800Y0028631D03*
X0206485Y0019969D03*
X0213965Y0019969D03*
X0210225Y0028631D03*
X0226485Y0019969D03*
X0233965Y0019969D03*
X0230225Y0028631D03*
X0246485Y0019969D03*
X0253965Y0019969D03*
X0250225Y0028631D03*
X0271485Y0019969D03*
X0278965Y0019969D03*
X0275225Y0028631D03*
X0321485Y0019969D03*
X0328965Y0019969D03*
X0325225Y0028631D03*
D18*
X0307715Y0178719D03*
X0300235Y0178719D03*
X0303975Y0187381D03*
X0255215Y0203719D03*
X0247735Y0203719D03*
X0251475Y0212381D03*
X0109290Y0178719D03*
X0101810Y0178719D03*
X0105550Y0187381D03*
X0056790Y0203719D03*
X0053050Y0212381D03*
X0049310Y0203719D03*
D19*
X0112426Y0304479D03*
X0112426Y0320621D03*
X0106800Y0339979D03*
X0106800Y0356121D03*
X0049925Y0354871D03*
X0049925Y0338729D03*
X0248350Y0338729D03*
X0248350Y0354871D03*
X0305225Y0356121D03*
X0305225Y0339979D03*
X0310851Y0320621D03*
X0310851Y0304479D03*
D20*
X0330125Y0290700D03*
X0330125Y0281700D03*
X0330125Y0272700D03*
X0131700Y0272700D03*
X0131700Y0281700D03*
X0131700Y0290700D03*
D21*
X0106900Y0281800D03*
X0305325Y0281800D03*
D22*
X0285375Y0356900D03*
X0276375Y0356900D03*
X0267375Y0356900D03*
X0086950Y0356900D03*
X0077950Y0356900D03*
X0068950Y0356900D03*
D23*
X0078050Y0381700D03*
X0276475Y0381700D03*
D24*
X0228621Y0235929D03*
X0226062Y0235929D03*
X0223503Y0235929D03*
X0220944Y0235929D03*
X0220944Y0217031D03*
X0223503Y0217031D03*
X0226062Y0217031D03*
X0228621Y0217031D03*
X0030196Y0217031D03*
X0027637Y0217031D03*
X0025078Y0217031D03*
X0022519Y0217031D03*
X0022519Y0235929D03*
X0025078Y0235929D03*
X0027637Y0235929D03*
X0030196Y0235929D03*
D25*
X0074211Y0119989D03*
X0076770Y0119989D03*
X0079330Y0119989D03*
X0081889Y0119989D03*
X0081889Y0097351D03*
X0079330Y0097351D03*
X0076770Y0097351D03*
X0074211Y0097351D03*
X0112961Y0089369D03*
X0115520Y0089369D03*
X0118080Y0089369D03*
X0120639Y0089369D03*
X0120639Y0066731D03*
X0118080Y0066731D03*
X0115520Y0066731D03*
X0112961Y0066731D03*
X0272637Y0097351D03*
X0275196Y0097351D03*
X0277755Y0097351D03*
X0280314Y0097351D03*
X0280314Y0119989D03*
X0277755Y0119989D03*
X0275196Y0119989D03*
X0272637Y0119989D03*
X0311387Y0089369D03*
X0313946Y0089369D03*
X0316505Y0089369D03*
X0319064Y0089369D03*
X0319064Y0066731D03*
X0316505Y0066731D03*
X0313946Y0066731D03*
X0311387Y0066731D03*
X0180599Y0371465D03*
X0178040Y0371465D03*
X0175481Y0371465D03*
X0172922Y0371465D03*
X0172922Y0394103D03*
X0175481Y0394103D03*
X0178040Y0394103D03*
X0180599Y0394103D03*
D26*
X0136800Y0078040D03*
X0136800Y0070560D03*
X0335225Y0070560D03*
X0335225Y0078040D03*
D27*
X0337725Y0301101D03*
X0337725Y0319999D03*
X0315225Y0368601D03*
X0315225Y0387499D03*
D28*
X0331495Y0388675D03*
X0346456Y0388675D03*
X0322725Y0349280D03*
X0322725Y0334320D03*
X0185791Y0362784D03*
X0170830Y0362784D03*
X0160491Y0354585D03*
X0145530Y0354585D03*
X0145530Y0378109D03*
X0145530Y0389034D03*
X0160491Y0389034D03*
X0160491Y0378109D03*
X0169906Y0401534D03*
X0160491Y0406652D03*
X0145530Y0406652D03*
X0184866Y0401534D03*
M02*
